<svg width="80" height="80" viewBox="0 0 80 80" fill="none" xmlns="http://www.w3.org/2000/svg">
<circle cx="40" cy="40" r="40" fill="white"/>
<path d="M36.2196 49.9646C34.9549 49.9646 33.7639 49.475 32.8646 48.5852L27.8531 43.6266C27.1895 42.97 26.8214 42.0944 26.8165 41.1611C26.8115 40.2278 27.1704 39.3484 27.8268 38.6851C28.4833 38.0216 29.3588 37.6535 30.2921 37.6485H30.3113C31.2376 37.6485 32.1095 38.0068 32.7683 38.6589L36.2117 42.0658L47.2184 31.059C47.8784 30.399 48.7559 30.0356 49.6893 30.0356C50.6227 30.0356 51.5001 30.3992 52.1601 31.0592C52.8201 31.719 53.1836 32.5966 53.1836 33.53C53.1836 34.4635 52.8202 35.3409 52.1601 36.0008L39.5933 48.5673C38.6957 49.4648 37.5021 49.9611 36.2326 49.9646C36.2283 49.9646 36.2239 49.9646 36.2196 49.9646ZM30.3109 39.6016C30.3081 39.6016 30.3053 39.6016 30.3025 39.6016C29.8908 39.6037 29.5046 39.7661 29.2151 40.0587C28.9255 40.3514 28.7673 40.7392 28.7695 41.1508C28.7716 41.5625 28.934 41.9487 29.2267 42.2383L34.2382 47.1968H34.2383C34.7694 47.7223 35.4729 48.0114 36.2197 48.0114H36.2274C36.9772 48.0094 37.6821 47.7163 38.2123 47.1862L50.7791 34.6194C51.0703 34.3284 51.2305 33.9415 51.2305 33.5298C51.2305 33.1181 51.0702 32.7311 50.7792 32.4399C50.488 32.1489 50.101 31.9886 49.6893 31.9886C49.2776 31.9886 48.8906 32.1489 48.5996 32.4399L36.9058 44.1336C36.5258 44.5137 35.9103 44.5152 35.5285 44.1372L31.3946 40.0471C31.104 39.7596 30.7194 39.6016 30.3109 39.6016Z" fill="#57504C"/>
<path d="M40 64.9999C33.3223 64.9999 27.0442 62.3994 22.3224 57.6776C17.6004 52.9557 15 46.6776 15 39.9999C15 27.9438 23.5912 17.6054 35.4278 15.4172C35.9584 15.3187 36.4676 15.6695 36.5656 16.2C36.6637 16.7304 36.3132 17.2396 35.7828 17.3377C24.8722 19.3548 16.9531 28.8855 16.9531 39.9999C16.9531 52.708 27.2919 63.0468 40 63.0468C52.7081 63.0468 63.0469 52.708 63.0469 39.9999C63.0469 28.8855 55.1278 19.3548 44.2171 17.3377C43.6867 17.2396 43.3362 16.7303 43.4343 16.2C43.5323 15.6696 44.0418 15.319 44.5721 15.4172C56.4088 17.6054 65 27.9438 65 39.9999C65 46.6776 62.3996 52.9557 57.6776 57.6776C52.9558 62.3994 46.6777 64.9999 40 64.9999Z" fill="#57504C"/>
<path d="M40 16.9531C40.5393 16.9531 40.9766 16.5159 40.9766 15.9766C40.9766 15.4372 40.5393 15 40 15C39.4607 15 39.0234 15.4372 39.0234 15.9766C39.0234 16.5159 39.4607 16.9531 40 16.9531Z" fill="#57504C"/>
</svg>
