<svg width="80" height="80" viewBox="0 0 80 80" fill="none" xmlns="http://www.w3.org/2000/svg">
<circle cx="40" cy="40" r="40" fill="white"/>
<path d="M28.6722 38.2035C28.7075 38.2035 28.7431 38.2025 28.7785 38.2022C30.1423 39.9018 31.8885 41.2841 33.8548 42.2155C35.4048 42.9491 36.4062 44.5326 36.4062 46.2495V50.4219H34.6094C34.1132 50.4219 33.7109 50.8242 33.7109 51.3203V55.8125H31.9141C31.5737 55.8125 31.2627 56.0048 31.1105 56.3092L28.4152 61.6998C28.2759 61.9783 28.2908 62.309 28.4545 62.5739C28.6182 62.8386 28.9074 62.9999 29.2188 62.9999H35.957C36.4532 62.9999 36.8555 62.5976 36.8555 62.1015C36.8555 61.6054 36.4532 61.203 35.957 61.203H30.6724L32.4693 57.6093H47.5306L49.3275 61.203H44.043C43.5469 61.203 43.1445 61.6054 43.1445 62.1015C43.1445 62.5976 43.5469 62.9999 44.043 62.9999H50.7812C51.0926 62.9999 51.3819 62.8386 51.5456 62.5739C51.7092 62.309 51.7241 61.9782 51.5849 61.6998L48.8896 56.3092C48.7373 56.0048 48.4263 55.8125 48.0859 55.8125H46.2891V51.3203C46.2891 50.8242 45.8867 50.4219 45.3906 50.4219H43.5938V46.2495C43.5938 44.5327 44.5952 42.9492 46.1453 42.2154C48.1115 41.2842 49.8575 39.902 51.2215 38.2022C51.2569 38.2026 51.2924 38.2035 51.3278 38.2035C57.7424 38.2035 63 33.014 63 26.5234V23.8281C63 23.332 62.5977 22.9297 62.1016 22.9297H54.375V20.5938C54.375 19.603 55.1811 18.7969 56.1719 18.7969C56.668 18.7969 57.0703 18.3946 57.0703 17.8984C57.0703 17.4023 56.668 17 56.1719 17H23.8281C23.3319 17 22.9297 17.4023 22.9297 17.8984C22.9297 18.3946 23.3319 18.7969 23.8281 18.7969C24.8189 18.7969 25.625 19.603 25.625 20.5938V22.9297H17.8984C17.4022 22.9297 17 23.332 17 23.8281V26.5234C17 33.027 22.271 38.2037 28.6722 38.2035ZM44.4922 52.2188V55.8125H35.5078V52.2188H44.4922ZM54.375 24.7266H61.2031V26.5234C61.2031 31.7047 57.2818 35.7782 52.4921 36.3378C53.7283 34.1794 54.375 31.7499 54.375 29.2188V24.7266ZM53.0604 18.7969C52.7538 19.3258 52.5781 19.9397 52.5781 20.5938V29.2188C52.5781 34.3129 49.5713 38.6045 45.3764 40.5914C43.2019 41.6207 41.7969 43.8416 41.7969 46.2495V50.4219H38.2031V46.2495C38.2031 43.8416 36.7981 41.6207 34.6238 40.5914C30.4224 38.6015 27.4219 34.3055 27.4219 29.2188V20.5938C27.4219 19.9397 27.2461 19.3258 26.9396 18.7969H53.0604ZM18.7969 24.7266H25.625V29.2188C25.625 31.7501 26.2717 34.1797 27.508 36.3381C22.7184 35.7788 18.7969 31.7039 18.7969 26.5234V24.7266Z" fill="#57504C"/>
<path d="M40 63C40.4962 63 40.8984 62.5978 40.8984 62.1016C40.8984 61.6054 40.4962 61.2031 40 61.2031C39.5038 61.2031 39.1016 61.6054 39.1016 62.1016C39.1016 62.5978 39.5038 63 40 63Z" fill="#57504C"/>
</svg>
