<svg width="80" height="80" viewBox="0 0 80 80" fill="none" xmlns="http://www.w3.org/2000/svg">
<circle cx="40" cy="40" r="40" fill="white"/>
<path d="M29.933 20.0257C30.1027 20.0257 30.2782 19.9672 30.4187 19.8443C31.3666 19.0251 32.2735 18.6331 33.1161 18.6799C33.6954 18.7092 34.0991 18.9315 34.6082 19.2065C35.1582 19.5049 35.7784 19.8502 36.6795 19.9555C37.9317 20.1018 39.2366 19.7331 40.5589 18.8496C40.8983 18.6214 40.9919 18.165 40.7637 17.8256C40.5355 17.4862 40.0791 17.3926 39.7398 17.6208C38.7216 18.2996 37.7503 18.5921 36.8551 18.4868C36.2407 18.4166 35.8135 18.1825 35.322 17.9134C34.7545 17.6033 34.1167 17.2522 33.198 17.2054C31.9634 17.141 30.7054 17.6559 29.459 18.7326C29.1489 19.0017 29.1138 19.4698 29.383 19.7741C29.5234 19.9379 29.7282 20.0257 29.933 20.0257Z" fill="#57504C"/>
<path fill-rule="evenodd" clip-rule="evenodd" d="M29.3282 18.5812C30.6001 17.4825 31.9068 16.9378 33.2083 17.0056C34.1674 17.0545 34.8371 17.4205 35.4015 17.7289L35.4179 17.7379C35.9107 18.0078 36.3068 18.2229 36.8777 18.2881C37.7111 18.3861 38.6358 18.1164 39.6288 17.4544C40.0615 17.1634 40.641 17.2847 40.9296 17.714C41.2206 18.1468 41.0998 18.7269 40.6705 19.0156C39.3187 19.9187 37.9665 20.3072 36.6563 20.1541C35.736 20.0466 35.0944 19.6982 34.5534 19.4044C34.5398 19.397 34.5263 19.3897 34.5128 19.3823C34.5128 19.3823 34.5128 19.3824 34.5128 19.3823L34.5062 19.3788C33.9965 19.1034 33.6314 18.9062 33.1059 18.8796L33.1049 18.8796C32.3347 18.8368 31.4772 19.1939 30.5498 19.9953C30.3706 20.1518 30.1476 20.2257 29.9329 20.2257C29.6728 20.2257 29.4121 20.1147 29.2321 19.9054C28.8885 19.5157 28.9367 18.921 29.3282 18.5812ZM29.5899 18.8838C29.3617 19.082 29.3392 19.4228 29.5327 19.6416L29.5348 19.6439C29.6356 19.7615 29.784 19.8257 29.9329 19.8257C30.0575 19.8257 30.1853 19.7827 30.2869 19.6938L30.2878 19.693C31.2559 18.8564 32.212 18.4295 33.1266 18.4802C33.7428 18.5114 34.1784 18.7469 34.6689 19.012C34.6803 19.0182 34.6917 19.0244 34.7032 19.0306C34.7133 19.0361 34.7238 19.0418 34.734 19.0473C35.2758 19.3414 35.8597 19.6583 36.7027 19.7568C37.8968 19.8963 39.1546 19.5473 40.4476 18.6834C40.6968 18.5156 40.7631 18.1831 40.5977 17.9372C40.43 17.6878 40.0973 17.6214 39.8513 17.7868C38.8081 18.4822 37.789 18.798 36.832 18.6855C36.1791 18.6108 35.7226 18.3608 35.2365 18.0946L35.2261 18.0889L35.2241 18.0878C34.6574 17.7782 34.0556 17.4493 33.1878 17.4051C32.0201 17.3442 30.8106 17.8293 29.5899 18.8838Z" fill="#57504C"/>
<path d="M47.2703 34.098C47.6799 34.098 48.0135 33.7645 48.0135 33.3549V30.6575C48.0135 30.2479 47.6799 29.9144 47.2703 29.9144C46.8607 29.9144 46.5272 30.2479 46.5272 30.6575V33.3549C46.5272 33.7645 46.8607 34.098 47.2703 34.098Z" fill="#57504C"/>
<path fill-rule="evenodd" clip-rule="evenodd" d="M46.3271 30.6575C46.3271 30.1374 46.7502 29.7144 47.2703 29.7144C47.7903 29.7144 48.2134 30.1374 48.2134 30.6575V33.3549C48.2134 33.875 47.7903 34.298 47.2703 34.298C46.7502 34.298 46.3271 33.875 46.3271 33.3549V30.6575ZM47.2703 30.1144C46.9711 30.1144 46.7271 30.3584 46.7271 30.6575V33.3549C46.7271 33.6541 46.9711 33.898 47.2703 33.898C47.5694 33.898 47.8134 33.6541 47.8134 33.3549V30.6575C47.8134 30.3584 47.5694 30.1144 47.2703 30.1144Z" fill="#57504C"/>
<path d="M47.2703 36.6902C47.6799 36.6902 48.0135 36.3567 48.0135 35.9471V35.6311C48.0135 35.2215 47.6799 34.888 47.2703 34.888C46.8607 34.888 46.5272 35.2215 46.5272 35.6311V35.9471C46.5272 36.3567 46.8607 36.6902 47.2703 36.6902Z" fill="#57504C"/>
<path fill-rule="evenodd" clip-rule="evenodd" d="M46.3271 35.6311C46.3271 35.1111 46.7502 34.688 47.2703 34.688C47.7903 34.688 48.2134 35.1111 48.2134 35.6311V35.9471C48.2134 36.4671 47.7903 36.8902 47.2703 36.8902C46.7502 36.8902 46.3271 36.4671 46.3271 35.9471V35.6311ZM47.2703 35.088C46.9711 35.088 46.7271 35.332 46.7271 35.6311V35.9471C46.7271 36.2462 46.9711 36.4902 47.2703 36.4902C47.5694 36.4902 47.8134 36.2462 47.8134 35.9471V35.6311C47.8134 35.332 47.5694 35.088 47.2703 35.088Z" fill="#57504C"/>
<path d="M38.5577 34.098C38.9673 34.098 39.3008 33.7645 39.3008 33.3549V30.6575C39.3008 30.2479 38.9673 29.9144 38.5577 29.9144C38.1481 29.9144 37.8146 30.2479 37.8146 30.6575V33.3549C37.8204 33.7645 38.154 34.098 38.5577 34.098Z" fill="#57504C"/>
<path fill-rule="evenodd" clip-rule="evenodd" d="M37.6146 30.6575C37.6146 30.1374 38.0377 29.7144 38.5578 29.7144C39.0778 29.7144 39.5009 30.1374 39.5009 30.6575V33.3549C39.5009 33.875 39.0778 34.298 38.5578 34.298C38.042 34.298 37.622 33.874 37.6147 33.3578L37.6146 33.3549H37.6146V30.6575ZM38.5578 30.1144C38.2586 30.1144 38.0146 30.3584 38.0146 30.6575V33.3534C38.0197 33.6557 38.2665 33.898 38.5578 33.898C38.8569 33.898 39.1009 33.6541 39.1009 33.3549V30.6575C39.1009 30.3584 38.8569 30.1144 38.5578 30.1144Z" fill="#57504C"/>
<path d="M38.5577 36.6902C38.9673 36.6902 39.3008 36.3567 39.3008 35.9471V35.6311C39.3008 35.2215 38.9673 34.888 38.5577 34.888C38.1481 34.888 37.8146 35.2215 37.8146 35.6311V35.9471C37.8204 36.3567 38.154 36.6902 38.5577 36.6902Z" fill="#57504C"/>
<path fill-rule="evenodd" clip-rule="evenodd" d="M37.6146 35.6311C37.6146 35.1111 38.0377 34.688 38.5578 34.688C39.0778 34.688 39.5009 35.1111 39.5009 35.6311V35.9471C39.5009 36.4671 39.0778 36.8902 38.5578 36.8902C38.042 36.8902 37.622 36.4662 37.6147 35.9499L37.6146 35.9471H37.6146V35.6311ZM38.5578 35.088C38.2586 35.088 38.0146 35.332 38.0146 35.6311V35.9455C38.0197 36.2479 38.2665 36.4902 38.5578 36.4902C38.8569 36.4902 39.1009 36.2462 39.1009 35.9471V35.6311C39.1009 35.332 38.8569 35.088 38.5578 35.088Z" fill="#57504C"/>
<path d="M55.7078 29.9202C55.2982 29.9202 54.9647 30.2538 54.9647 30.6633V33.3608C54.9647 33.7704 55.2982 34.1039 55.7078 34.1039C56.1174 34.1039 56.451 33.7704 56.451 33.3608V30.6633C56.4451 30.2538 56.1174 29.9202 55.7078 29.9202Z" fill="#57504C"/>
<path fill-rule="evenodd" clip-rule="evenodd" d="M54.7648 30.6633C54.7648 30.1433 55.1878 29.7202 55.7079 29.7202C56.2305 29.7202 56.6436 30.1453 56.651 30.6605L56.651 30.6633H56.651V33.3608C56.651 33.8808 56.2279 34.3039 55.7079 34.3039C55.1878 34.3039 54.7648 33.8808 54.7648 33.3608V30.6633ZM55.7079 30.1202C55.4088 30.1202 55.1648 30.3642 55.1648 30.6633V33.3608C55.1648 33.6599 55.4088 33.9039 55.7079 33.9039C56.007 33.9039 56.251 33.6599 56.251 33.3608V30.6649C56.246 30.3615 56.004 30.1202 55.7079 30.1202Z" fill="#57504C"/>
<path d="M55.7078 34.8939C55.2982 34.8939 54.9647 35.2274 54.9647 35.637V35.9529C54.9647 36.3625 55.2982 36.6961 55.7078 36.6961C56.1174 36.6961 56.451 36.3625 56.451 35.9529V35.637C56.4451 35.2274 56.1174 34.8939 55.7078 34.8939Z" fill="#57504C"/>
<path fill-rule="evenodd" clip-rule="evenodd" d="M54.7648 35.637C54.7648 35.1169 55.1878 34.6939 55.7079 34.6939C56.2305 34.6939 56.6436 35.1189 56.651 35.6341L56.651 35.637H56.651V35.9529C56.651 36.473 56.2279 36.8961 55.7079 36.8961C55.1878 36.8961 54.7648 36.473 54.7648 35.9529V35.637ZM55.7079 35.0939C55.4088 35.0939 55.1648 35.3378 55.1648 35.637V35.9529C55.1648 36.2521 55.4088 36.4961 55.7079 36.4961C56.007 36.4961 56.251 36.2521 56.251 35.9529V35.6385C56.246 35.3352 56.004 35.0939 55.7079 35.0939Z" fill="#57504C"/>
<path d="M55.9653 27.3282H52.1386C51.2199 27.3282 50.3949 27.7378 49.8332 28.3873C49.2714 27.7378 48.4522 27.3282 47.5277 27.3282H43.701C42.7823 27.3282 41.9573 27.7378 41.3956 28.3873C40.8339 27.7378 40.0147 27.3282 39.0902 27.3282H35.0528C34.8655 25.4909 34.6842 23.6009 34.4969 21.6407C34.4618 21.2604 34.14 20.9678 33.7597 20.9678H26.1062C25.7258 20.9678 25.404 21.2604 25.3689 21.6407C24.6726 29.0426 23.9704 35.5024 23.2858 41.7458C22.6012 48.0008 21.8991 54.4606 21.2028 61.8684C21.1852 62.0732 21.2496 62.2838 21.39 62.4359C21.5305 62.5881 21.7294 62.6758 21.94 62.6758H37.9316H58.2649C58.6745 62.6758 59.008 62.3423 59.008 61.9327V30.3767C59.008 28.6974 57.6446 27.3282 55.9653 27.3282ZM43.701 28.8086H47.5277C48.3879 28.8086 49.09 29.5107 49.09 30.3709V43.4251V61.2013H42.1329V43.4251V30.3767C42.1329 29.5107 42.835 28.8086 43.701 28.8086ZM39.0902 28.8086C39.9503 28.8086 40.6525 29.5107 40.6525 30.3709V43.4251V61.2013H38.6045C37.9316 54.0744 37.247 47.8077 36.58 41.7458C36.1294 37.5972 35.6613 33.355 35.1991 28.8086H39.0902ZM26.153 28.8554H33.7187C33.8006 29.6687 33.8825 30.4762 33.9703 31.272H25.9014C25.9833 30.4703 26.0711 29.6687 26.153 28.8554ZM33.0868 22.4541C33.2447 24.1275 33.4027 25.7542 33.5666 27.3457C33.5315 27.3516 33.4963 27.3633 33.4671 27.375H26.2993C26.4572 25.7776 26.6211 24.1392 26.7791 22.4541H33.0868ZM22.7534 61.2013C23.4204 54.1388 24.105 47.9247 24.7604 41.9096C25.088 38.9313 25.4157 35.9003 25.7492 32.7465H34.1224C34.456 35.9003 34.7836 38.9254 35.1113 41.9038C35.7666 47.9189 36.4512 54.133 37.1183 61.1955H22.7534V61.2013ZM57.5276 61.2013H50.5704V43.4251V30.3767C50.5704 29.5166 51.2726 28.8144 52.1327 28.8144H55.9595C56.8196 28.8144 57.5218 29.5166 57.5218 30.3767V61.2013H57.5276Z" fill="#57504C"/>
<path fill-rule="evenodd" clip-rule="evenodd" d="M25.1698 21.622C25.2146 21.1389 25.6227 20.7678 26.1062 20.7678H33.7597C34.2432 20.7678 34.6514 21.139 34.6961 21.6222C34.8772 23.5183 35.0528 25.3482 35.2335 27.1282H39.0902C39.9957 27.1282 40.8064 27.4971 41.3957 28.0929C41.9858 27.497 42.8011 27.1282 43.701 27.1282H47.5278C48.4332 27.1282 49.244 27.4971 49.8332 28.0929C50.4234 27.497 51.2387 27.1282 52.1386 27.1282H55.9653C57.7556 27.1282 59.208 28.5874 59.208 30.3767V61.9327C59.208 62.4528 58.785 62.8758 58.2649 62.8758H21.9401C21.6737 62.8758 21.4214 62.7648 21.2431 62.5716C21.0612 62.3745 20.9816 62.107 21.0035 61.8513L21.0037 61.8496C21.7001 54.4402 22.4025 47.9791 23.0871 41.724C23.7717 35.4808 24.4737 29.0222 25.1698 21.622ZM26.1062 21.1678C25.8291 21.1678 25.5937 21.3817 25.5681 21.6591C24.8716 29.0626 24.1693 35.5241 23.4847 41.7676C22.8001 48.0223 22.0981 54.4805 21.402 61.8862C21.3891 62.0398 21.4382 62.1932 21.537 62.3003C21.6395 62.4113 21.7852 62.4758 21.9401 62.4758H58.2649C58.564 62.4758 58.808 62.2319 58.808 61.9327V30.3767C58.808 28.8073 57.5337 27.5282 55.9653 27.5282H52.1386C51.2809 27.5282 50.5101 27.9103 49.9845 28.5181L49.8332 28.693L49.6819 28.5181C49.1561 27.9102 48.3912 27.5282 47.5278 27.5282H43.701C42.8433 27.5282 42.0725 27.9103 41.5469 28.5181L41.3956 28.693L41.2444 28.5181C40.7186 27.9102 39.9536 27.5282 39.0902 27.5282H34.8722L34.8539 27.3485C34.6665 25.5104 34.4851 23.6199 34.2979 21.6597C34.2723 21.3824 34.0368 21.1678 33.7597 21.1678H26.1062ZM26.597 22.2541H33.2688L33.2859 22.4353C33.4439 24.1084 33.6018 25.7345 33.7655 27.3253L33.7848 27.5121L33.5995 27.543C33.5839 27.5456 33.5635 27.5518 33.5414 27.5607L33.5056 27.575H26.0785L26.1003 27.3553C26.1233 27.122 26.1465 26.8879 26.1698 26.6529C26.306 25.2783 26.4451 23.8739 26.58 22.4354L26.597 22.2541ZM26.9612 22.6541C26.8316 24.0304 26.6983 25.3756 26.5679 26.6923C26.5519 26.8536 26.5359 27.0145 26.5201 27.175H33.348C33.197 25.7013 33.0508 24.1973 32.9048 22.6541H26.9612ZM34.9777 28.6086H39.0902C40.0608 28.6086 40.8525 29.4003 40.8525 30.3708V61.4013H38.4226L38.4054 61.2201C37.7327 54.0949 37.0483 47.8295 36.3812 41.7676C36.3097 41.1089 36.2376 40.4474 36.1653 39.7831C35.7821 36.2639 35.3891 32.654 35.0001 28.8288L34.9777 28.6086ZM35.4205 29.0086C35.802 32.7507 36.1871 36.288 36.5629 39.7397C36.6353 40.404 36.7073 41.0651 36.7788 41.7239C37.4402 47.7345 38.119 53.9476 38.7865 61.0013H40.4525V30.3708C40.4525 29.6212 39.8399 29.0086 39.0902 29.0086H35.4205ZM43.701 29.0086C42.9455 29.0086 42.3329 29.6212 42.3329 30.3767V61.0013H48.8901V30.3708C48.8901 29.6212 48.2775 29.0086 47.5278 29.0086H43.701ZM41.9329 30.3767C41.9329 29.4003 42.7246 28.6086 43.701 28.6086H47.5278C48.4984 28.6086 49.2901 29.4003 49.2901 30.3708V61.4013H41.9329V30.3767ZM52.1327 29.0144C51.3831 29.0144 50.7705 29.627 50.7705 30.3767V61.0013H57.3218V30.3767C57.3218 29.627 56.7092 29.0144 55.9595 29.0144H52.1327ZM57.5276 61.2013V61.4013H50.3705V30.3767C50.3705 29.4061 51.1622 28.6144 52.1327 28.6144H55.9595C56.9301 28.6144 57.7218 29.4061 57.7218 30.3767V61.2013H57.5276ZM25.9721 28.6554H33.8996L33.9177 28.8353C33.9996 29.6487 34.0815 30.4553 34.1691 31.25L34.1936 31.4719H25.6799L25.7024 31.2516C25.7397 30.887 25.778 30.5243 25.8163 30.161C25.8626 29.7217 25.9091 29.2814 25.954 28.8353L25.9721 28.6554ZM26.3338 29.0554C26.2946 29.4399 26.2541 29.8234 26.2138 30.2053C26.1833 30.4952 26.1528 30.7842 26.123 31.0719H33.7472C33.6749 30.4061 33.6062 29.7326 33.5379 29.0554H26.3338ZM25.5693 32.5465H34.3024L34.3214 32.7254C34.6549 35.879 34.9825 38.9038 35.3101 41.8819C35.3523 42.2688 35.3946 42.6568 35.437 43.0455C36.0535 48.7001 36.6932 54.5669 37.3174 61.1767L37.3381 61.3955H22.7534V61.2107L22.5534 61.2013V60.9955H22.572C23.1907 54.462 23.8241 48.6526 24.4348 43.0515C24.4771 42.6627 24.5194 42.2749 24.5616 41.8879C24.8892 38.9099 25.2169 35.879 25.5504 32.7254L25.5693 32.5465ZM22.9738 60.9955H36.8985C36.2811 54.4779 35.649 48.6809 35.0393 43.0886C34.9969 42.7 34.9547 42.3124 34.9125 41.9256C34.591 39.0035 34.2695 36.0362 33.9425 32.9465H25.9292C25.6022 36.0364 25.2807 39.0093 24.9592 41.9315C24.9171 42.3183 24.8748 42.7059 24.8324 43.0944C24.2229 48.6851 23.591 54.4803 22.9738 60.9955Z" fill="#57504C"/>
</svg>
