<svg width="80" height="80" viewBox="0 0 80 80" fill="none" xmlns="http://www.w3.org/2000/svg">
<circle cx="40" cy="40" r="40" fill="white"/>
<path d="M34.1542 51.2747C34.1542 51.7999 33.7285 52.2257 33.2033 52.2257C32.6781 52.2257 32.2523 51.7999 32.2523 51.2747C32.2523 50.7496 32.6781 50.3238 33.2033 50.3238C33.7285 50.3238 34.1542 50.7496 34.1542 51.2747ZM61.1452 53.2895C58.3159 56.9424 54.0842 59.0369 49.5348 59.0371H30.8433C26.2939 59.0369 22.0622 56.9424 19.2329 53.2895C16.293 49.4937 15.2961 44.6534 16.4982 40.0097L21.2311 21.7122C21.3404 21.2929 21.719 21 22.1517 21H22.152H30.5674C31.0925 21 31.5183 21.4258 31.5183 21.9509C31.5183 23.4453 32.7341 24.6611 34.2285 24.6611C35.7229 24.6611 36.9386 23.4453 36.9386 21.9509C36.9386 21.4258 37.3644 21 37.8896 21H47.2562C47.7813 21 48.2071 21.4258 48.2071 21.9509C48.2071 22.4753 48.6337 22.9019 49.1581 22.9019C49.6824 22.9019 50.109 22.4753 50.109 21.9509C50.109 21.4258 50.5348 21 51.0599 21H58.2235C58.6569 21 59.0355 21.2931 59.1441 21.7126L63.8801 40.0097C65.082 44.6534 64.0852 49.4937 61.1452 53.2895ZM62.0388 40.4863L57.4873 22.9019H51.8478C51.4553 24.0088 50.3977 24.8037 49.158 24.8037C47.9182 24.8037 46.8606 24.0088 46.4682 22.9019H38.7419C38.3023 24.9902 36.4456 26.5629 34.2284 26.5629C32.0112 26.5629 30.1545 24.9902 29.7149 22.9019H23.3809C23.3809 22.9019 27.7801 39.9007 27.8144 40.0319C28.5057 42.7021 29.6563 45.2012 31.2329 47.4588C31.5335 47.8894 31.4281 48.4823 30.9974 48.7829C30.5667 49.0835 29.974 48.9782 29.6733 48.5476C27.9655 46.1027 26.7244 43.4125 25.9769 40.5226L22.1516 25.745L18.3393 40.4863C17.2859 44.5559 18.1597 48.798 20.7365 52.125C23.203 55.3094 26.8863 57.1353 30.8433 57.1353H40.223C38.7319 56.5011 37.2951 55.7118 35.9515 54.7865C35.5189 54.4887 35.4097 53.8966 35.7075 53.4641C36.0054 53.0316 36.5975 52.9222 37.03 53.2202C40.75 55.7791 45.0778 57.1326 49.5348 57.1354C53.4917 57.1354 57.1752 55.3095 59.6416 52.1251C62.2184 48.798 63.0922 44.5559 62.0388 40.4863ZM43.2622 46.2947C43.2622 44.407 41.7266 42.8714 39.8389 42.8714C37.9512 42.8714 36.4155 44.407 36.4155 46.2947C36.4155 48.1824 37.9512 49.7181 39.8389 49.7181C41.7266 49.7181 43.2622 48.1823 43.2622 46.2947ZM41.3604 46.2947C41.3604 47.1336 40.6778 47.8162 39.8389 47.8162C39 47.8162 38.3174 47.1336 38.3174 46.2947C38.3174 45.4558 39 44.7732 39.8389 44.7732C40.6778 44.7732 41.3604 45.4558 41.3604 46.2947ZM54.293 35.359C54.293 32.2655 51.7761 29.7486 48.6825 29.7486C45.5889 29.7486 43.072 32.2655 43.072 35.359C43.072 38.4526 45.5889 40.9695 48.6825 40.9695C51.7761 40.9695 54.293 38.4526 54.293 35.359ZM52.3911 35.359C52.3911 37.404 50.7275 39.0677 48.6825 39.0677C46.6375 39.0677 44.9739 37.404 44.9739 35.359C44.9739 33.3141 46.6375 31.6504 48.6825 31.6504C50.7275 31.6504 52.3911 33.3141 52.3911 35.359Z" fill="#57504C"/>
</svg>
