<svg width="21" height="25" viewBox="0 0 21 25" fill="none" xmlns="http://www.w3.org/2000/svg">
<path fill-rule="evenodd" clip-rule="evenodd" d="M-1.04907e-06 12.6665C-1.12775e-06 11.7665 0.723231 11.0369 1.61538 11.0369L15.4847 11.0369L7.96212 3.44833C7.33127 2.81195 7.33127 1.78017 7.96212 1.14379C8.59297 0.507409 9.61577 0.507409 10.2466 1.14379L20.5269 11.5142C21.1577 12.1506 21.1577 13.1824 20.5269 13.8188L10.2466 24.1892C9.61577 24.8256 8.59297 24.8256 7.96212 24.1892C7.33128 23.5528 7.33128 22.5211 7.96212 21.8847L15.4847 14.2961L1.61538 14.2961C0.723231 14.2961 -9.70395e-07 13.5665 -1.04907e-06 12.6665Z" fill="#57504C"/>
</svg>
