<svg width="80" height="80" viewBox="0 0 80 80" fill="none" xmlns="http://www.w3.org/2000/svg">
<circle cx="40" cy="40" r="40" fill="#F9B134"/>
<path d="M55.5644 18H25.9188C23.758 18 22 19.758 22 21.9189V57.908C22 60.0689 23.758 61.827 25.9188 61.827H55.5644C56.8808 61.827 57.9518 60.7559 57.9518 59.4395V20.3875C57.9518 19.071 56.8808 18 55.5644 18ZM23.712 57.908C23.712 56.6912 24.7019 55.7011 25.9188 55.7011H52.8157V60.115H25.9188C24.7019 60.115 23.712 59.125 23.712 57.908ZM56.2398 59.4395C56.2398 59.812 55.9368 60.115 55.5644 60.115H54.5276V55.7012H55.5644C55.7988 55.7012 56.0256 55.6672 56.2398 55.604V59.4395ZM56.2398 53.3137C56.2398 53.6862 55.9368 53.9892 55.5644 53.9892H27.1361V40.7023C27.1361 40.2295 26.7528 39.8463 26.2801 39.8463C25.8073 39.8463 25.4241 40.2295 25.4241 40.7023V54.0208C24.7951 54.1004 24.212 54.3291 23.712 54.6711V21.9189C23.712 20.8721 24.4447 19.9939 25.4241 19.7686V32.9982C25.4241 33.471 25.8073 33.8542 26.2801 33.8542C26.7528 33.8542 27.1361 33.471 27.1361 32.9982V19.712H55.5644C55.9368 19.712 56.2398 20.015 56.2398 20.3875V53.3137Z" fill="#57504C"/>
<path d="M47.7583 27.2322C47.1111 27.2322 46.475 27.3553 45.8813 27.5926C44.9515 26.216 43.3866 25.3645 41.6885 25.3645C39.9904 25.3645 38.4255 26.216 37.4957 27.5926C36.902 27.3554 36.2658 27.2322 35.6187 27.2322C32.8296 27.2322 30.5605 29.5013 30.5605 32.2904C30.5605 34.4334 31.8742 36.2922 33.8289 37.0238V47.0133C33.8289 47.7427 34.4224 48.3363 35.1518 48.3363H48.2252C48.9546 48.3363 49.5481 47.7428 49.5481 47.0133V37.0238C51.5027 36.2923 52.8163 34.4334 52.8163 32.2904C52.8163 29.5014 50.5474 27.2322 47.7583 27.2322ZM35.5409 46.6243V44.9122H47.8361V46.6243H35.5409ZM48.5026 35.5535C48.1127 35.6419 47.8361 35.9885 47.8361 36.3883V43.2002H35.5409V36.3883C35.5409 35.9885 35.2642 35.6419 34.8743 35.5535C33.3424 35.2059 32.2725 33.864 32.2725 32.2904C32.2725 30.4453 33.7736 28.9443 35.6187 28.9443C36.2471 28.9443 36.8596 29.1195 37.3897 29.451C37.6001 29.5827 37.8573 29.6165 38.0948 29.5436C38.332 29.4708 38.5261 29.2985 38.6264 29.0715C39.1622 27.8596 40.3641 27.0766 41.6884 27.0766C43.0127 27.0766 44.2146 27.8596 44.7504 29.0715C44.8508 29.2985 45.0448 29.4708 45.282 29.5436C45.5194 29.6166 45.7766 29.5827 45.9871 29.451C46.5173 29.1195 47.1297 28.9443 47.7582 28.9443C49.6032 28.9443 51.1043 30.4453 51.1043 32.2904C51.1044 33.864 50.0344 35.2059 48.5026 35.5535Z" fill="#57504C"/>
<path d="M26.2798 35.9946C25.8071 35.9946 25.4238 36.3781 25.4238 36.8509C25.4238 37.3236 25.8071 37.7069 26.2798 37.7069C26.7526 37.7069 27.1358 37.3236 27.1358 36.8509V36.8503C27.1358 36.3775 26.7526 35.9946 26.2798 35.9946Z" fill="#57504C"/>
</svg>
