<svg width="80" height="80" viewBox="0 0 80 80" fill="none" xmlns="http://www.w3.org/2000/svg">
<circle cx="40" cy="40" r="40" fill="white"/>
<path d="M54.5867 21.955H43.8365C43.4088 21.955 43.0621 22.2986 43.0621 22.7225C43.0621 23.1464 43.4088 23.4901 43.8365 23.4901H54.5867C57.269 23.4901 59.4512 25.6529 59.4512 28.3114V30.1676C59.4512 32.8261 57.269 34.989 54.5867 34.989H26.4133C23.731 34.989 21.5488 32.8261 21.5488 30.1676V28.3114C21.5488 25.6529 23.731 23.4901 26.4133 23.4901C26.841 23.4901 27.1877 23.1464 27.1877 22.7225C27.1877 22.2986 26.841 21.955 26.4133 21.955C22.8771 21.955 20 24.8065 20 28.3114V34.6986C20 36.5625 20.8137 38.2415 22.1074 39.4052V55.9505C22.1074 58.1834 23.9402 60 26.1931 60H54.807C57.0599 60 58.8927 58.1834 58.8927 55.9505V39.4051C60.1863 38.2414 61 36.5624 61 34.6986V28.3114C61 24.8065 58.123 21.955 54.5867 21.955ZM57.3439 55.9504C57.3439 57.3369 56.2058 58.4648 54.807 58.4648H26.1931C24.7943 58.4648 23.6563 57.3368 23.6563 55.9504V40.4366C24.492 40.8327 25.4268 41.0551 26.4133 41.0551H54.5867C55.5732 41.0551 56.5081 40.8327 57.3439 40.4366V55.9504ZM59.4512 34.6986C59.4512 36.1879 58.7661 37.5213 57.6922 38.4064C57.6552 38.4306 57.6207 38.4583 57.5884 38.4884C56.7609 39.1336 55.7188 39.5199 54.5867 39.5199H26.4133C25.2815 39.5199 24.2398 39.1338 23.4124 38.489C23.3799 38.4586 23.3449 38.4306 23.3075 38.4062C22.2338 37.5211 21.5488 36.1878 21.5488 34.6986V34.303C22.726 35.6613 24.4693 36.5241 26.4133 36.5241H54.5867C56.5306 36.5241 58.274 35.6613 59.4512 34.303V34.6986ZM26.9849 30.2603C26.9849 25.8323 30.1042 21.7953 34.9581 20.0476C35.2588 19.9393 35.4975 20.049 35.5104 20.054C35.5198 20.0576 35.7867 20.193 35.896 20.3811C38.0321 24.0585 43.4441 26.5111 49.3159 26.5111C50.2644 26.5111 51.2171 26.4478 52.1473 26.3233C52.5027 26.2758 52.845 26.4764 52.9739 26.8084C53.4058 27.9216 53.6249 29.083 53.6249 30.2603C53.6249 30.7006 53.5929 31.149 53.5301 31.5928C53.4705 32.0127 53.0788 32.3051 52.6554 32.2461C52.2318 32.1871 51.9367 31.799 51.9963 31.3792C52.0493 31.0058 52.076 30.6293 52.076 30.2602C52.076 29.4676 51.9575 28.6829 51.723 27.92C50.9271 28.0038 50.1201 28.0461 49.316 28.0461C43.4504 28.0461 38.1648 25.8451 35.3781 22.3424C34.9042 24.1294 35.6322 26.0911 37.2981 27.1126C37.6619 27.3356 37.7743 27.8086 37.5494 28.1692C37.4029 28.4039 37.1494 28.533 36.89 28.533C36.751 28.533 36.6103 28.4959 36.4833 28.4181C34.3165 27.0895 33.3199 24.587 33.8102 22.2466C30.5548 24.0097 28.5338 27.0108 28.5338 30.2602C28.5338 30.6303 28.5607 31.0067 28.6135 31.3789C28.6732 31.7987 28.3782 32.1869 27.9547 32.246C27.9181 32.2511 27.8817 32.2536 27.8458 32.2536C27.466 32.2536 27.1344 31.9765 27.0799 31.5931C27.0169 31.1502 26.9849 30.7018 26.9849 30.2603Z" fill="#57504C"/>
</svg>
