<svg width="80" height="80" viewBox="0 0 80 80" fill="none" xmlns="http://www.w3.org/2000/svg">
<circle cx="40" cy="40" r="40" fill="white"/>
<path d="M35.136 49.9091C35.136 50.3759 34.7576 50.7543 34.2908 50.7543C33.824 50.7543 33.4456 50.3759 33.4456 49.9091C33.4456 49.4423 33.824 49.0639 34.2908 49.0639C34.7576 49.0639 35.136 49.4423 35.136 49.9091ZM59.1264 51.6999C56.6117 54.9467 52.8504 56.8084 48.8068 56.8085H32.1931C28.1495 56.8084 24.3883 54.9467 21.8735 51.6999C19.2604 48.326 18.3744 44.0239 19.4428 39.8964L23.6495 23.6331C23.7467 23.2603 24.0832 23 24.4678 23H24.4681H31.9479C32.4147 23 32.7932 23.3785 32.7932 23.8452C32.7932 25.1735 33.8738 26.2541 35.202 26.2541C36.5303 26.2541 37.6109 25.1735 37.6109 23.8452C37.6109 23.3785 37.9894 23 38.4561 23H46.7815C47.2482 23 47.6267 23.3785 47.6267 23.8452C47.6267 24.3113 48.0059 24.6904 48.4719 24.6904C48.938 24.6904 49.3171 24.3113 49.3171 23.8452C49.3171 23.3785 49.6956 23 50.1623 23H56.5295C56.9148 23 57.2512 23.2605 57.3478 23.6334L61.5573 39.8964C62.6255 44.0239 61.7396 48.326 59.1264 51.6999ZM59.9207 40.32L55.8752 24.6904H50.8626C50.5138 25.6743 49.5737 26.3809 48.4718 26.3809C47.3699 26.3809 46.4299 25.6743 46.081 24.6904H39.2137C38.8229 26.5466 37.1726 27.9445 35.2019 27.9445C33.2312 27.9445 31.581 26.5466 31.1902 24.6904H25.5604C25.5604 24.6904 29.4705 39.7995 29.501 39.9161C30.1154 42.2895 31.1381 44.5107 32.5395 46.5174C32.8067 46.9002 32.7129 47.4271 32.3302 47.6943C31.9474 47.9615 31.4205 47.8678 31.1533 47.4851C29.6353 45.3121 28.5322 42.9209 27.8678 40.3523L24.4677 27.2175L21.0792 40.32C20.143 43.9372 20.9196 47.7077 23.2099 50.6648C25.4023 53.4953 28.6761 55.1182 32.1931 55.1182H40.5302C39.2048 54.5544 37.9278 53.8529 36.7335 53.0305C36.349 52.7658 36.252 52.2395 36.5167 51.8551C36.7814 51.4707 37.3077 51.3735 37.6921 51.6383C40.9986 53.9127 44.8453 55.1157 48.8068 55.1183C52.3238 55.1183 55.5978 53.4954 57.79 50.6649C60.0804 47.7077 60.857 43.9372 59.9207 40.32ZM43.2315 45.4827C43.2315 43.8049 41.8665 42.44 40.1887 42.44C38.5109 42.44 37.1459 43.8049 37.1459 45.4827C37.1459 47.1606 38.5109 48.5255 40.1887 48.5255C41.8665 48.5255 43.2315 47.1605 43.2315 45.4827ZM41.5411 45.4827C41.5411 46.2284 40.9344 46.8351 40.1887 46.8351C39.4431 46.8351 38.8364 46.2284 38.8364 45.4827C38.8364 44.7371 39.4431 44.1304 40.1887 44.1304C40.9344 44.1304 41.5411 44.7371 41.5411 45.4827ZM53.036 35.7628C53.036 33.0131 50.7989 30.776 48.0492 30.776C45.2996 30.776 43.0624 33.0131 43.0624 35.7628C43.0624 38.5124 45.2996 40.7495 48.0492 40.7495C50.7989 40.7495 53.036 38.5124 53.036 35.7628ZM51.3456 35.7628C51.3456 37.5804 49.8669 39.0591 48.0492 39.0591C46.2316 39.0591 44.7529 37.5804 44.7529 35.7628C44.7529 33.9451 46.2316 32.4664 48.0492 32.4664C49.8669 32.4664 51.3456 33.9451 51.3456 35.7628Z" fill="#57504C"/>
</svg>
