<svg width="80" height="80" viewBox="0 0 80 80" fill="none" xmlns="http://www.w3.org/2000/svg">
<circle cx="40" cy="40" r="40" fill="white"/>
<path d="M60.9292 33.8355C60.6652 33.0372 60.0621 32.3761 59.261 31.9986C59.7778 31.2994 60.1101 30.4596 60.2195 29.5447C60.3711 28.276 60.0934 26.9508 59.4374 25.8132C58.7132 24.557 57.5681 23.6212 56.2133 23.1782C54.8538 22.7338 53.2906 22.7827 51.6599 23.313C50.6198 20.7933 48.2062 19.8167 46.0487 20.0279C44.6515 20.1655 43.3811 20.7709 42.4715 21.7327C41.7187 22.5287 41.2698 23.5019 41.1416 24.5911C38.4481 23.6685 35.176 24.8063 33.7134 27.2273L32.7019 28.9019C32.2203 29.6994 32.1018 30.599 32.3664 31.4407C30.2648 31.5075 28.184 32.5977 27.0992 34.3937L26.0877 36.0682C25.606 36.8656 25.4874 37.7654 25.7521 38.607C23.6506 38.6739 21.5697 39.7641 20.485 41.56L19.4734 43.2346C18.9836 44.0456 18.8693 44.9625 19.1519 45.8163C19.4162 46.6154 20.0202 47.2771 20.8226 47.6544C19.5782 49.3478 19.4624 51.8084 20.6555 53.8592C21.3946 55.1296 22.5622 56.0665 23.9432 56.4976C24.5378 56.6832 25.1702 56.7755 25.8295 56.7755C26.6585 56.7755 27.5301 56.6288 28.4223 56.3386C29.371 58.6361 31.4604 59.652 33.4573 59.652C33.6502 59.652 33.8426 59.6425 34.0326 59.6237C35.4298 59.4862 36.7002 58.8807 37.6098 57.9188C38.3624 57.1229 38.8112 56.1499 38.9395 55.0608C39.5702 55.2767 40.2324 55.3805 40.8959 55.3805C43.066 55.3805 45.2477 54.2785 46.3678 52.4243L47.3793 50.7497C47.861 49.9523 47.9795 49.0525 47.7149 48.211C49.8165 48.1442 51.8972 47.0539 52.982 45.258L53.9936 43.5833C54.4752 42.786 54.5937 41.8862 54.3291 41.0446C56.4306 40.9777 58.5116 39.8874 59.5962 38.0917L60.6078 36.417C61.0975 35.6063 61.2118 34.6894 60.9292 33.8355ZM58.0135 26.6342C58.8103 28.0162 58.9194 30.0585 57.6694 31.3423L52.542 29.2443L52.1377 25.2772C52.1246 25.1494 52.1088 25.0243 52.0904 24.9015C54.6818 24.0288 56.8752 24.66 58.0135 26.6342ZM46.2096 21.6637C48.136 21.4743 50.2096 22.5695 50.5025 25.4437L50.818 28.5389L42.7461 25.2361C42.7541 23.0189 44.4954 21.8324 46.2096 21.6637ZM22.0762 53.0327C21.268 51.6436 21.1547 49.5978 22.4115 48.3095L27.539 50.4075L27.9433 54.3747C27.9564 54.5027 27.9727 54.6274 27.991 54.7504C25.405 55.6213 23.2211 55.0004 22.0762 53.0327ZM33.8716 57.9881C33.7314 58.0019 33.5907 58.0089 33.4496 58.0089C31.6535 58.0087 29.8502 56.8731 29.5785 54.2081L29.263 51.1129L37.335 54.4157C37.3268 56.6328 35.5857 57.8193 33.8716 57.9881ZM52.5865 42.7337L51.575 44.4083C50.4767 46.2266 47.8645 47.0737 45.8697 46.2593C45.869 46.259 45.8684 46.2587 45.8676 46.2584L45.8675 46.2583C45.8672 46.2582 45.8669 46.2582 45.8666 46.2581L40.4676 44.049C40.0474 43.8769 39.5677 44.0784 39.3958 44.4984C39.224 44.9184 39.4252 45.3984 39.8452 45.5702L45.2444 47.7794C45.2446 47.7795 45.2448 47.7796 45.245 47.7797H45.2451C45.2465 47.7803 45.2481 47.781 45.2494 47.7814C45.6917 47.9638 46.0079 48.2843 46.1403 48.6844C46.2695 49.0749 46.2098 49.5067 45.9723 49.8999L44.9608 51.5746C43.8619 53.3938 41.248 54.2406 39.253 53.4246L21.6078 46.2048C21.1631 46.0229 20.8452 45.7015 20.7124 45.3001C20.5831 44.9095 20.6427 44.4777 20.8804 44.0843L21.8919 42.4098C22.9905 40.5912 25.6036 39.744 27.5985 40.5592C27.5985 40.5593 27.5987 40.5593 27.5988 40.5593C27.5989 40.5594 27.599 40.5594 27.5991 40.5595C27.5993 40.5596 27.5994 40.5596 27.5997 40.5597L32.9985 42.7687C33.1004 42.8104 33.2057 42.8301 33.3094 42.8301C33.6332 42.8301 33.9401 42.6374 34.0703 42.3193C34.2421 41.8993 34.0409 41.4193 33.6209 41.2475L28.2217 39.0383C27.7772 38.8563 27.4593 38.5349 27.3266 38.1335C27.1975 37.7429 27.2572 37.3113 27.4947 36.918L28.5063 35.2434C29.6023 33.4287 32.2062 32.5813 34.1995 33.3875C34.2043 33.3895 34.2092 33.3915 34.214 33.3934L51.8589 40.613C51.8591 40.6131 51.8593 40.6132 51.8595 40.6133C52.3041 40.7952 52.6221 41.1165 52.7549 41.518C52.8838 41.9087 52.8241 42.3404 52.5865 42.7337ZM59.2007 35.5674L58.1892 37.2421C57.0905 39.0611 54.4767 39.9084 52.4816 39.0921C52.4814 39.0921 52.4811 39.092 52.4808 39.0919L34.8372 31.8728C34.8369 31.8726 34.8366 31.8725 34.8361 31.8723C34.3915 31.6903 34.0735 31.369 33.9407 30.9675C33.8114 30.5769 33.8712 30.1452 34.1087 29.7519L35.1203 28.0772C36.2192 26.2581 38.8332 25.4114 40.828 26.2272L58.4733 33.4471C58.918 33.629 59.2359 33.9504 59.3687 34.3518C59.498 34.7424 59.4383 35.1741 59.2007 35.5674Z" fill="#57504C"/>
</svg>
