<svg width="180" height="53" viewBox="0 0 180 53" fill="none" xmlns="http://www.w3.org/2000/svg">
<g clip-path="url(#clip0_285_231)">
<mask id="mask0_285_231" style="mask-type:luminance" maskUnits="userSpaceOnUse" x="0" y="42" width="180" height="11">
<path d="M179.975 42.0947H2.27301C1.02267 42.0947 0.0104873 43.1174 0.0244967 44.3678L0.0840367 50.5354C0.0980462 51.7682 1.09972 52.7629 2.33255 52.7629H177.744C178.984 52.7629 179.993 51.7577 179.993 50.5179C179.996 47.3903 179.993 42.0982 179.993 42.0982C179.996 42.0947 179.979 42.0947 179.975 42.0947Z" fill="white"/>
</mask>
<g mask="url(#mask0_285_231)">
<path d="M180 42.0947H0.0107422V52.7629H180V42.0947Z" fill="url(#paint0_linear_285_231)"/>
</g>
<path d="M0 2.18197V47.0611C0 48.2659 0.96665 49.2431 2.15745 49.2431H177.843C179.033 49.2431 180 48.2659 180 47.0611V2.18197C180 0.977157 179.033 0 177.843 0H2.15745C0.96665 0 0 0.977157 0 2.18197Z" fill="#2C2927"/>
<path d="M142.423 17.946L142.147 18.8741C142.024 19.2804 141.653 19.5606 141.229 19.5606H137.6V32.8835C137.6 33.1637 137.383 33.3914 137.107 33.4054H134.725C134.424 33.4229 134.172 33.1812 134.172 32.8835V19.5571H129.692C129.454 19.5571 129.289 19.3259 129.363 19.1018L129.675 18.1561C129.804 17.7639 130.172 17.4942 130.585 17.4942H142.094C142.325 17.4977 142.49 17.7218 142.423 17.946ZM115.973 18.8741L116.25 17.946C116.317 17.7218 116.149 17.4977 115.917 17.4977H108.478H107.281C106.993 17.4977 106.762 17.7359 106.762 18.0266V32.866C106.762 33.1742 107.014 33.4159 107.316 33.4019H109.697C109.974 33.3879 110.195 33.1532 110.195 32.866V19.5571H115.052C115.48 19.5571 115.851 19.2804 115.973 18.8741ZM71.8088 25.5041C71.8088 29.9626 68.422 33.5735 63.5082 33.5735C58.4298 33.5735 55.2076 29.9591 55.2076 25.5041C55.2076 21.0456 58.5944 17.4347 63.5082 17.4347C68.5866 17.4312 71.8088 21.0456 71.8088 25.5041ZM68.0157 25.5041C68.0157 22.0893 66.2645 19.3224 63.5082 19.3224C60.5102 19.3224 59.0007 22.0893 59.0007 25.5041C59.0007 28.9189 60.7518 31.6857 63.5082 31.6857C66.6708 31.6822 68.0157 28.9154 68.0157 25.5041ZM104.143 25.5041C104.143 29.9626 100.756 33.5735 95.8419 33.5735C90.7635 33.5735 87.5413 29.9591 87.5413 25.5041C87.5413 21.0456 90.9281 17.4347 95.8419 17.4347C100.92 17.4312 104.143 21.0456 104.143 25.5041ZM100.349 25.5041C100.349 22.0893 98.5983 19.3224 95.8419 19.3224C92.8439 19.3224 91.3344 22.0893 91.3344 25.5041C91.3344 28.9189 93.0856 31.6857 95.8419 31.6857C99.0045 31.6822 100.349 28.9154 100.349 25.5041ZM159.2 25.5041C159.2 29.9626 155.813 33.5735 150.899 33.5735C145.824 33.5735 142.598 29.9591 142.598 25.5041C142.598 21.0456 145.985 17.4347 150.899 17.4347C155.974 17.4312 159.2 21.0456 159.2 25.5041ZM155.406 25.5041C155.406 22.0893 153.655 19.3224 150.899 19.3224C147.904 19.3224 146.391 22.0893 146.391 25.5041C146.391 28.9189 148.143 31.6857 150.899 31.6857C154.058 31.6822 155.406 28.9154 155.406 25.5041ZM130.193 32.81C130.323 33.1217 130.161 33.3809 129.881 33.3949L126.96 33.4019C126.659 33.4194 126.509 33.1882 126.407 32.88L124.964 28.9154H119.35L117.991 32.873C117.889 33.1812 117.739 33.4124 117.437 33.3949H115.434C115.154 33.3809 114.993 33.1217 115.122 32.81L120.747 18.5064C120.765 18.0266 120.94 17.7148 121.339 17.6658C121.871 17.6028 123.423 17.4452 123.423 17.4452C123.78 17.4136 124.092 17.5958 124.2 17.883L130.193 32.81ZM124.236 26.9085L122.18 21.2592L122.173 21.2487H121.99L120.047 26.912H124.236V26.9085ZM38.7325 17.4977H36.3404C36.0532 17.4977 35.8221 17.7359 35.8221 18.0266V32.866C35.8221 33.1742 36.0742 33.4159 36.3754 33.4019H38.757C39.0337 33.3879 39.2509 33.1532 39.2509 32.866V18.0301C39.2509 17.7359 39.0197 17.4977 38.7325 17.4977ZM172.827 28.6177C172.827 32.4563 169.213 33.5735 166.498 33.5735C163.784 33.5735 162.828 33.3353 162.198 33.2793C161.9 33.2513 161.644 33.0552 161.644 32.7575V18.3628C161.644 18.0756 161.875 17.8444 162.163 17.8444C162.163 17.8444 164.432 17.4312 166.355 17.4312C168.113 17.4312 171.871 17.8865 171.871 21.2872C171.871 22.7968 170.894 23.858 169.735 24.59V24.8702C171.321 25.5216 172.827 26.7439 172.827 28.6177ZM165.073 24.2888H165.931C167.15 24.2888 168.579 23.4692 168.579 21.613C168.579 20.0439 167.584 19.2279 166.096 19.2279C165.819 19.2279 165.451 19.2699 165.069 19.3259V24.2888H165.073ZM169.118 28.7928C169.118 27.0766 167.861 26.1205 166.047 26.1205H165.073V31.6647C165.392 31.7208 165.78 31.7698 166.19 31.7698C167.973 31.7698 169.118 30.6175 169.118 28.7928ZM53.5755 22.8248C53.5755 25.6582 51.1974 27.9557 47.8422 27.9557C47.2853 27.9557 46.7354 27.9032 46.2521 27.8366V32.887C46.2521 33.1742 46.0209 33.4054 45.7337 33.4054H43.3416C43.0544 33.4054 42.8233 33.1742 42.8233 32.887V18.4328C42.8233 18.1316 43.086 17.9915 43.3731 17.911C44.1892 17.6798 45.6812 17.4312 47.2853 17.4312C50.4934 17.4312 53.5755 18.9862 53.5755 22.8248ZM50.0486 22.6497C50.0486 20.9895 49.0294 19.6096 47.2432 19.6096C46.872 19.6096 46.5323 19.6586 46.2486 19.7182V26.0399C46.5918 26.0855 46.9981 26.124 47.4079 26.124C49.3867 26.124 50.0486 24.2012 50.0486 22.6497ZM33.9973 27.9978C33.9973 31.8363 31.2445 33.5735 27.7071 33.5735C26.103 33.5735 24.611 33.3283 23.795 33.0972C23.5043 33.0131 23.2416 32.873 23.2416 32.5753V18.016C23.2416 17.7289 23.4728 17.4977 23.76 17.4977H26.1521C26.4393 17.4977 26.6704 17.7289 26.6704 18.016V22.9859C27.1537 22.9158 27.7071 22.8668 28.2605 22.8668C32.1131 22.8668 33.9973 25.1644 33.9973 27.9978ZM30.4705 28.1729C30.4705 26.6213 29.9731 24.6985 27.8297 24.6985C27.4199 24.6985 27.0137 24.7371 26.6704 24.7826V31.29C26.9506 31.3495 27.2903 31.3985 27.6616 31.3985C29.4513 31.395 30.4705 29.833 30.4705 28.1729ZM85.3874 28.1834C85.3874 32.022 82.512 33.5735 78.9746 33.5735C77.3705 33.5735 75.6929 33.3283 74.8803 33.0972C74.5896 33.0131 74.327 32.873 74.327 32.5753V18.016C74.327 17.7289 74.5581 17.4977 74.8453 17.4977H75.8084H83.8008C84.032 17.4977 84.2001 17.7218 84.1335 17.946L83.8569 18.8741C83.7343 19.2804 83.3595 19.5606 82.9357 19.5606H77.7523V23.1925C78.2986 23.1155 78.9221 23.0559 79.528 23.0559C83.3805 23.0524 85.3874 25.35 85.3874 28.1834ZM81.864 28.2955C81.864 26.7439 81.4052 24.8807 79.1007 24.8807C78.6454 24.8807 78.162 24.9262 77.7558 24.9787V31.262C78.0955 31.3355 78.5088 31.395 78.9325 31.395C80.8834 31.395 81.864 29.9556 81.864 28.2955ZM16.1739 19.5606C17.5328 19.5606 18.587 19.9879 19.2559 20.2505C19.5256 20.3556 19.8338 20.2435 19.9634 19.9879L20.3977 19.1298C20.5343 18.8636 20.4187 18.5414 20.1455 18.4083C18.8707 17.7884 17.5643 17.4312 15.8657 17.4312C10.6086 17.4312 7.16931 21.0456 7.16931 25.5006C7.16931 30.4389 10.5981 33.57 15.8657 33.57C18.1737 33.57 19.4556 32.9326 20.1595 32.5508C20.4187 32.4107 20.5203 32.099 20.3907 31.8398L19.9144 30.8942C19.7813 30.6315 19.4556 30.5195 19.1824 30.6385C18.5695 30.9117 17.6519 31.3215 16.1108 31.3215C12.8326 31.3215 10.7978 28.9119 10.7978 25.5006C10.7978 22.0893 12.64 19.5606 16.1739 19.5606Z" fill="#FEFEFE"/>
<mask id="mask1_285_231" style="mask-type:luminance" maskUnits="userSpaceOnUse" x="57" y="8" width="13" height="8">
<path d="M68.1558 10.7067C68.0857 10.8783 68.0507 11.0604 68.0332 11.2355C67.704 10.7662 67.0175 10.6646 67.0175 10.6646C67.0175 10.6646 66.8389 11.3546 67.1611 11.8449C67.2977 12.0481 67.4973 12.1847 67.6865 12.2757C67.5149 12.4263 66.212 13.477 64.0265 12.4964V11.5752C64.2367 11.5612 64.4818 11.5122 64.685 11.3686C65.1683 11.0359 65.2558 10.3284 65.2558 10.3284C65.2558 10.3284 64.5834 10.1673 64.1001 10.4825C64.1526 10.3109 64.1841 10.1323 64.1841 9.94665C64.1841 9.10258 63.5047 8.48267 63.5047 8.48267C63.5047 8.48267 62.8287 9.10258 62.8287 9.94665C62.8287 10.1323 62.8637 10.3144 62.9128 10.4825C62.4329 10.1673 61.757 10.3284 61.757 10.3284C61.757 10.3284 61.8446 11.0359 62.3279 11.3686C62.531 11.5122 62.7762 11.5612 62.9863 11.5752V12.4964C60.7973 13.477 59.498 12.4263 59.3264 12.2757C59.5155 12.1847 59.7151 12.0481 59.8517 11.8449C60.1739 11.3546 59.9953 10.6646 59.9953 10.6646C59.9953 10.6646 59.3088 10.7662 58.9796 11.2355C58.9656 11.0569 58.9271 10.8783 58.8605 10.7067C58.5488 9.92213 57.6873 9.59641 57.6873 9.59641L58.822 12.4333L59.7571 15.4383C61.6589 14.8605 63.5047 14.8605 63.5047 14.8605C63.5047 14.8605 65.3504 14.8605 67.2522 15.4383L68.1873 12.4333L69.3221 9.59641C69.3256 9.59641 68.4675 9.92213 68.1558 10.7067Z" fill="white"/>
</mask>
<g mask="url(#mask1_285_231)">
<path d="M69.329 8.47559H57.6942V15.4348H69.329V8.47559Z" fill="url(#paint1_linear_285_231)"/>
</g>
</g>
<defs>
<linearGradient id="paint0_linear_285_231" x1="179.777" y1="47.4277" x2="2.12021" y2="47.4277" gradientUnits="userSpaceOnUse">
<stop stop-color="#D9B568"/>
<stop offset="0.25" stop-color="#D9B568"/>
<stop offset="0.76" stop-color="#F0DBB4"/>
<stop offset="1" stop-color="#F0DBB4"/>
</linearGradient>
<linearGradient id="paint1_linear_285_231" x1="69.3756" y1="11.9565" x2="57.9509" y2="11.9565" gradientUnits="userSpaceOnUse">
<stop stop-color="#D3B274"/>
<stop offset="0.46" stop-color="#D3B274"/>
<stop offset="0.56" stop-color="#F3DEB5"/>
<stop offset="1" stop-color="#F3DEB5"/>
</linearGradient>
<clipPath id="clip0_285_231">
<rect width="180" height="52.763" fill="white"/>
</clipPath>
</defs>
</svg>
