<svg width="35" height="35" viewBox="0 0 35 35" fill="none" xmlns="http://www.w3.org/2000/svg">
<path d="M17.5 5.67383C17.8706 5.67383 18.1718 5.37849 18.1828 5.0108C18.1836 5.00385 18.1836 4.99718 18.1836 4.99023C18.1836 4.61292 17.8773 4.30664 17.5 4.30664C17.1227 4.30664 16.8164 4.61292 16.8164 4.99023C16.8164 4.99718 16.8164 5.00385 16.8172 5.0108C16.8282 5.37849 17.1294 5.67383 17.5 5.67383Z" fill="#57504C"/>
<path d="M17.5 0C8.06561 0 0 8.05359 0 17.5C0 26.9277 8.04611 35 17.5 35C26.9277 35 35 26.9539 35 17.5C35 8.06561 26.9464 0 17.5 0ZM17.5 33.6328C8.75507 33.6328 1.36719 26.2449 1.36719 17.5C1.36719 8.75507 8.75507 1.36719 17.5 1.36719C26.2449 1.36719 33.6328 8.75507 33.6328 17.5C33.6328 26.2449 26.2449 33.6328 17.5 33.6328Z" fill="#57504C"/>
<path d="M20.3703 4.62589C20.0016 4.54178 19.636 4.77356 19.5527 5.14179C19.4691 5.51002 19.7001 5.87585 20.0686 5.95916C25.4973 7.18776 29.5604 12.4493 29.3185 17.9413C29.0752 24.2189 23.7742 29.3263 17.5014 29.3263C11.2326 29.3263 5.93129 24.2223 5.68429 17.9488C5.46639 12.3566 9.44298 7.20218 14.9344 5.95916C15.3027 5.87585 15.5336 5.50976 15.4501 5.14152C15.3668 4.77329 15.0009 4.54204 14.6324 4.62589C8.63309 5.98373 4.07117 11.6672 4.31817 18.0022C4.5916 24.946 10.4969 30.6935 17.5014 30.6935C24.4927 30.6935 30.4149 24.9559 30.6846 17.9979C30.9575 11.8047 26.4645 6.00483 20.3703 4.62589Z" fill="#57504C"/>
<path d="M21.6016 26.3867C22.7346 26.3867 23.6523 25.4689 23.6523 24.3359C23.6523 23.7626 23.6523 11.6483 23.6523 10.6641C23.6523 10.2865 23.3463 9.98047 22.9688 9.98047C20.3348 9.98047 18.1836 12.1108 18.1836 14.7656V20.2344C18.1836 20.612 18.4896 20.918 18.8672 20.918H19.5508V24.3359C19.5508 25.4668 20.4707 26.3867 21.6016 26.3867ZM21.6016 25.0195C21.2245 25.0195 20.918 24.713 20.918 24.3359V20.918H22.2852V24.3359C22.2852 24.7132 21.9789 25.0195 21.6016 25.0195ZM19.5508 14.7656C19.5508 13.0948 20.7415 11.7274 22.2852 11.4155V19.5508H19.5508V14.7656Z" fill="#57504C"/>
<path d="M15.4492 13.3984C15.4492 14.2895 14.8778 15.0495 14.082 15.3317V10.6641C14.082 10.2865 13.776 9.98047 13.3984 9.98047C13.0209 9.98047 12.7148 10.2865 12.7148 10.6641V15.3328C11.9362 15.0578 11.3477 14.3093 11.3477 13.3984V10.6641C11.3477 10.2865 11.0416 9.98047 10.6641 9.98047C10.2865 9.98047 9.98047 10.2865 9.98047 10.6641V13.3984C9.98047 15.0652 11.1687 16.4356 12.7148 16.748V19.5508H12.0313C11.6537 19.5508 11.3477 19.8568 11.3477 20.2344V24.3359C11.3477 25.4668 12.2676 26.3867 13.3984 26.3867C14.5293 26.3867 15.4492 25.4668 15.4492 24.3359V20.2344C15.4492 19.8568 15.1432 19.5508 14.7656 19.5508H14.082V16.7475C15.6404 16.43 16.8164 15.0492 16.8164 13.3984V10.6641C16.8164 10.2865 16.5104 9.98047 16.1328 9.98047C15.7552 9.98047 15.4492 10.2865 15.4492 10.6641V13.3984ZM14.082 24.3359C14.082 24.713 13.7755 25.0195 13.3984 25.0195C13.0214 25.0195 12.7148 24.713 12.7148 24.3359V20.918H14.082V24.3359Z" fill="#57504C"/>
</svg>
