<svg width="60" height="60" viewBox="0 0 60 60" fill="none" xmlns="http://www.w3.org/2000/svg">
<path fill-rule="evenodd" clip-rule="evenodd" d="M30 58C45.464 58 58 45.464 58 30C58 14.536 45.464 2 30 2C14.536 2 2 14.536 2 30C2 45.464 14.536 58 30 58ZM-1.31134e-06 30C-5.87108e-07 46.5685 13.4315 60 30 60C46.5685 60 60 46.5685 60 30C60 13.4315 46.5685 -2.03558e-06 30 -1.31134e-06C13.4315 -5.87108e-07 -2.03558e-06 13.4315 -1.31134e-06 30Z" fill="white"/>
<path fill-rule="evenodd" clip-rule="evenodd" d="M29.9998 36C29.4475 36 28.9998 35.5523 28.9998 35L28.9998 26.4142L24.343 31.0711C23.9524 31.4616 23.3193 31.4616 22.9287 31.0711C22.5382 30.6805 22.5382 30.0474 22.9287 29.6569L29.2927 23.2929C29.6832 22.9024 30.3164 22.9024 30.7069 23.2929L37.0709 29.6569C37.4614 30.0474 37.4614 30.6805 37.0709 31.0711C36.6804 31.4616 36.0472 31.4616 35.6567 31.0711L30.9998 26.4142L30.9998 35C30.9998 35.5523 30.5521 36 29.9998 36Z" fill="white"/>
</svg>
