<svg width="80" height="80" viewBox="0 0 80 80" fill="none" xmlns="http://www.w3.org/2000/svg">
<circle cx="40" cy="40" r="40" fill="white"/>
<path d="M61.1662 22.6465H53.895V17.8114C53.895 17.3643 53.5207 17 53.0613 17H48.7507C48.2913 17 47.9169 17.3643 47.9169 17.8114V22.6465H31.1341V17.8114C31.1341 17.3643 30.7598 17 30.3004 17H25.9898C25.5304 17 25.156 17.3643 25.156 17.8114V22.6465H17.8338C17.3743 22.6465 17 23.0107 17 23.4578V27.2884C17 27.7354 17.3743 28.0997 17.8338 28.0997H22.8646L24.6342 35.0543C24.725 35.4186 25.0596 35.6725 25.4453 35.6725H25.9047C26.2791 37.4884 26.5853 39.1277 26.8349 40.6953C27.1185 42.467 27.2489 43.5654 27.317 44.7411C27.3397 45.2268 27.3453 45.6407 27.334 46.0878C27.334 46.154 27.3283 46.2148 27.3283 46.2755C27.3227 46.3914 27.317 46.5018 27.317 46.6122C27.3113 46.7391 27.3056 46.8661 27.3056 46.993C27.3 47.3297 27.5042 47.6278 27.8331 47.7547C27.8558 47.7657 27.8785 47.7657 27.8898 47.7713C27.9579 47.7933 28.0373 47.8154 28.1167 47.8209C28.1224 47.8209 28.1224 47.8209 28.1281 47.8209H28.1451H28.1507H28.1564H28.1734C28.2699 47.8209 28.3549 47.7933 28.423 47.7657C28.4343 47.7657 28.4513 47.7602 28.4627 47.7602C28.786 47.6333 29.0015 47.3297 28.9958 46.993V46.6342V46.5846C29.0015 46.4411 29.0072 46.2865 29.0129 46.1264C29.0185 45.9609 29.0299 45.7898 29.0412 45.6021C29.0469 45.5027 29.0526 45.3979 29.0582 45.2875L29.0923 44.7245C29.166 43.4936 29.2908 42.3953 29.5744 40.6787C29.8239 39.1167 30.1359 37.4277 30.5045 35.6559H30.8619C31.2475 35.6559 31.5822 35.402 31.6729 35.0378L33.4425 28.0832H45.5858L47.3554 35.0378C47.4462 35.402 47.7808 35.6559 48.1665 35.6559H48.6373C49.0343 37.3725 49.3406 39.0173 49.5504 40.5517L49.6128 41.0043L49.6298 41.1092C49.9985 43.7807 50.1119 44.5865 50.0722 46.982C50.0665 47.1972 50.1516 47.4015 50.3104 47.5615C50.4636 47.7161 50.6734 47.8044 50.8946 47.8099H50.906H50.9116H50.9173H50.9287C51.1499 47.8044 51.3597 47.7216 51.5129 47.5615C51.666 47.407 51.7511 47.2028 51.7511 46.982C51.7114 44.581 51.8248 43.7696 52.1991 41.0871L52.2105 41.0043L52.2729 40.5517C52.4884 39.0173 52.7947 37.367 53.186 35.6559H53.5547C53.9404 35.6559 54.275 35.402 54.3658 35.0378L56.1354 28.0832H61.1606C61.62 28.0832 61.9943 27.7189 61.9943 27.2718V23.4413C62 23.0052 61.6257 22.6465 61.1662 22.6465ZM51.4788 35.6835C51.269 36.5943 51.0818 37.5491 50.906 38.5868C50.7415 37.6154 50.5487 36.6439 50.3331 35.6835H51.4788ZM54.4055 28.1108L52.8968 34.0553H48.8017L47.2874 28.1108H54.4055ZM28.786 35.678C28.5875 36.6495 28.3946 37.6706 28.2018 38.78C28.026 37.7699 27.8275 36.7267 27.6119 35.678H28.786ZM31.7013 28.1108L30.1926 34.0553H26.0976L24.5832 28.1108H31.7013ZM26.8292 22.6465V18.6227H29.4666V22.6465H26.8292ZM49.5844 22.6465V18.6227H52.2218V22.6465H49.5844ZM60.3325 24.2747V26.4825H55.4831H46.2267H32.7733H23.5169H18.6675V24.2747H25.9898H30.3004H48.7507H53.0613H60.3325Z" fill="#57504C"/>
<path d="M61.166 51.9109H59.4645H42.2392H36.7603H19.535H17.8335C17.3741 51.9109 16.9998 52.2752 16.9998 52.7223C16.9998 53.1693 17.3741 53.5336 17.8335 53.5336H18.8488L20.1873 60.135C20.2667 60.5158 20.6127 60.7918 21.0097 60.7918H35.2913C35.6883 60.7918 36.0343 60.5158 36.1137 60.135L37.4522 53.5336H41.5586L42.8972 60.135C42.9766 60.5158 43.3225 60.7918 43.7196 60.7918H58.0011C58.3982 60.7918 58.7441 60.5158 58.8236 60.135L60.1621 53.5336H61.183C61.6424 53.5336 62.0168 53.1693 62.0168 52.7223C62.0168 52.2752 61.6254 51.9109 61.166 51.9109ZM58.4549 53.5391L57.3092 59.169H44.4002L43.2602 53.5391H58.4549ZM35.745 53.5391L34.5993 59.169H21.6903L20.5503 53.5391H35.745Z" fill="#57504C"/>
<path d="M28.9844 50.0508V49.692C28.9844 49.2449 28.6101 48.8806 28.1506 48.8806C27.6912 48.8806 27.3169 49.2449 27.3169 49.692V50.0508C27.3169 50.4978 27.6912 50.8621 28.1506 50.8621C28.6101 50.8621 28.9844 50.4978 28.9844 50.0508Z" fill="#57504C"/>
<path d="M51.7395 50.0508V49.692C51.7395 49.2449 51.3652 48.8806 50.9058 48.8806C50.4464 48.8806 50.072 49.2449 50.072 49.692V50.0508C50.072 50.4978 50.4464 50.8621 50.9058 50.8621C51.3652 50.8621 51.7395 50.4978 51.7395 50.0508Z" fill="#57504C"/>
</svg>
