<svg width="80" height="80" viewBox="0 0 80 80" fill="none" xmlns="http://www.w3.org/2000/svg">
<circle cx="40" cy="40" r="40" fill="white"/>
<path d="M57.6107 22.3893C50.4249 15.2036 38.7329 15.2036 31.5472 22.3893C24.5745 29.362 24.3678 40.5777 30.9271 47.802L28.4426 50.2866L27.1022 48.9462C26.9336 48.7777 26.7051 48.683 26.4668 48.683C26.2285 48.683 25.9999 48.7777 25.8314 48.9462L18.0817 56.6961C17.3842 57.3935 17 58.3208 17 59.3072C17 60.2936 17.3842 61.2209 18.0816 61.9184C18.7791 62.6158 19.7064 63 20.6927 63C21.6791 63 22.6064 62.6158 23.3039 61.9184L31.0537 54.1686C31.2222 54.0001 31.3169 53.7715 31.3169 53.5332C31.3169 53.2949 31.2222 53.0663 31.0537 52.8978L29.7134 51.5575L32.1979 49.0729C35.6997 52.2524 40.1394 53.8421 44.5789 53.8421C49.2983 53.8421 54.0178 52.0457 57.6107 48.4528C64.7964 41.267 64.7964 29.575 57.6107 22.3893ZM22.0331 60.6475C21.6751 61.0055 21.1991 61.2027 20.6927 61.2027C20.1865 61.2027 19.7104 61.0056 19.3525 60.6475C18.9944 60.2895 18.7972 59.8135 18.7972 59.3072C18.7972 58.8009 18.9944 58.3249 19.3525 57.9669L26.4668 50.8524L29.1475 53.5331L22.0331 60.6475ZM56.3399 47.1819C49.8549 53.6669 39.303 53.6669 32.8181 47.182C26.3331 40.6969 26.3331 30.145 32.818 23.6601C36.0605 20.4176 40.3197 18.7963 44.5789 18.7963C48.8381 18.7963 53.0973 20.4176 56.3398 23.6601C62.8248 30.145 62.8248 40.6969 56.3399 47.1819Z" fill="#57504C"/>
<path d="M59.0306 35.2456C58.961 34.8752 58.6478 34.586 58.2775 34.5321C57.9045 34.4777 57.5212 34.6731 57.3511 35.0106C57.1819 35.3464 57.2358 35.7594 57.4942 36.0351C57.7477 36.3055 58.1506 36.3922 58.4932 36.2511C58.8837 36.0904 59.1146 35.6597 59.0306 35.2456Z" fill="#57504C"/>
<path d="M57.7891 38.6702C57.3157 38.5209 56.811 38.7836 56.6618 39.2569C56.0464 41.2071 54.9976 42.9329 53.5442 44.3863C51.1495 46.7809 47.9657 48.0998 44.579 48.0998C41.1925 48.0998 38.0085 46.781 35.6138 44.3863C30.6705 39.4429 30.6705 31.3994 35.6138 26.456C38.0085 24.0613 41.1925 22.7426 44.579 22.7426C47.9657 22.7426 51.1495 24.0613 53.5442 26.456C54.9812 27.8931 56.0611 29.6725 56.6669 31.6018C56.8155 32.0754 57.32 32.3386 57.7935 32.1899C58.267 32.0412 58.5302 31.5368 58.3815 31.0633C57.6892 28.8588 56.456 26.8262 54.815 25.1851C52.0809 22.451 48.4456 20.9453 44.579 20.9453C40.7124 20.9453 37.0772 22.451 34.343 25.1851C28.699 30.8293 28.699 40.0129 34.343 45.6571C37.0772 48.3912 40.7123 49.897 44.579 49.897C48.4457 49.897 52.0809 48.3913 54.815 45.6571C56.4512 44.0209 57.6825 41.9947 58.3757 39.7976C58.5249 39.3243 58.2624 38.8195 57.7891 38.6702Z" fill="#57504C"/>
<path d="M46.9711 30.8119L43.4877 34.2954L42.1867 32.9942C41.0249 31.8325 39.1347 31.8325 37.973 32.9942C36.8113 34.1559 36.8113 36.0462 37.973 37.2079L41.9271 41.1621C42.3574 41.5923 42.9226 41.8074 43.4878 41.8074C44.053 41.8074 44.6183 41.5923 45.0485 41.1621L51.1849 35.0256C52.3466 33.8639 52.3466 31.9736 51.1849 30.8118C51.1849 30.8118 51.1849 30.8118 51.1849 30.8117C50.023 29.6501 48.1328 29.6502 46.9711 30.8119ZM49.914 33.7548L43.7776 39.8913C43.6178 40.0511 43.3578 40.0511 43.1979 39.8913L39.2439 35.9372C38.7829 35.4762 38.7829 34.7262 39.2439 34.2652C39.4744 34.0347 39.7771 33.9194 40.0799 33.9194C40.3827 33.9194 40.6855 34.0347 40.9159 34.2651L42.8524 36.2016C43.021 36.3702 43.2495 36.4648 43.4878 36.4648C43.7261 36.4648 43.9547 36.3701 44.1232 36.2016L48.242 32.0828C48.703 31.6218 49.4531 31.6218 49.914 32.0827C50.375 32.5437 50.375 33.2938 49.914 33.7548Z" fill="#57504C"/>
</svg>
