<svg width="80" height="80" viewBox="0 0 80 80" fill="none" xmlns="http://www.w3.org/2000/svg">
<circle cx="40" cy="40" r="40" fill="white"/>
<path d="M45.6795 36.8514C45.6692 36.7327 45.6353 36.6212 45.5852 36.524C45.5534 36.4622 45.8018 36.8611 41.0992 29.3846H56.9636C57.4514 29.3846 57.847 28.9891 57.847 28.5013C57.847 28.0134 57.4514 27.6179 56.9636 27.6179H39.5C38.8061 27.6179 38.3827 28.384 38.7524 28.9716L43.9167 37.182V59.3046C42.4671 59.3903 40.9925 59.4337 39.5219 59.4337C24.9333 59.4338 14.7667 55.3566 14.7667 51.6973V36.672C14.7667 36.1842 14.3712 35.7886 13.8833 35.7886C13.3955 35.7886 13 36.1842 13 36.672V51.6973C13 54.3937 15.8932 56.8515 21.1468 58.6177C28.2383 61.002 37.4036 61.5411 44.8623 61.0136C45.3247 60.9809 45.6833 60.5961 45.6833 60.1324C45.6833 36.0141 45.6854 36.9216 45.6795 36.8514Z" fill="#57504C"/>
<path d="M57.8596 21.5859C41.4311 16.0626 13 19.8595 13 28.5011C13 31.139 15.6413 33.4703 20.6384 35.2431C25.2538 36.8803 31.4183 37.8531 37.9963 37.9823C38.4878 37.9912 38.8874 37.6012 38.8968 37.1164C38.9064 36.6287 38.5187 36.2255 38.031 36.2158C24.1149 35.9429 14.7667 32.0064 14.7667 28.5011C14.7667 24.8454 24.9242 20.772 39.5 20.772C54.0758 20.772 64.2333 24.8454 64.2333 28.5011V50.8053H50.5524C50.0646 50.8053 49.669 51.2008 49.669 51.6886C49.669 52.1765 50.0646 52.572 50.5524 52.572H65.1167C65.6045 52.572 66 52.1765 66 51.6886V28.5011C66 25.8066 63.109 23.3508 57.8596 21.5859Z" fill="#57504C"/>
<path d="M32.0716 23.2918C31.986 23.3068 31.9006 23.3219 31.8156 23.3371C31.3354 23.4234 31.016 23.8824 31.1022 24.3626C31.1883 24.8428 31.6475 25.1621 32.1276 25.076C32.2099 25.0612 32.2925 25.0466 32.3753 25.0321C32.8559 24.9483 33.1776 24.4908 33.0936 24.0101C33.0098 23.5296 32.5517 23.208 32.0716 23.2918Z" fill="#57504C"/>
<path d="M28.0785 24.1511C26.6319 24.5281 25.294 24.9577 24.1018 25.4283C23.6481 25.6074 23.4254 26.1205 23.6045 26.5743C23.7846 27.0303 24.2988 27.25 24.7505 27.0716C25.8766 26.6271 27.1461 26.2198 28.524 25.8607C28.996 25.7377 29.279 25.2553 29.156 24.7831C29.0329 24.311 28.5507 24.028 28.0785 24.1511Z" fill="#57504C"/>
<path d="M52.3635 42.7448C54.2813 42.7448 55.8416 41.1845 55.8416 39.2667C55.8416 37.3489 54.2813 35.7886 52.3635 35.7886C51.8757 35.7886 51.4802 36.1841 51.4802 36.6719C51.4802 37.1597 51.8757 37.5552 52.3635 37.5552C53.3072 37.5552 54.075 38.323 54.075 39.2667C54.075 40.2104 53.3072 40.9782 52.3635 40.9782C51.4198 40.9782 50.652 40.2104 50.652 39.2667C50.652 38.7789 50.2565 38.3834 49.7687 38.3834C49.2809 38.3834 48.8854 38.7789 48.8854 39.2667C48.8854 41.1846 50.4457 42.7448 52.3635 42.7448Z" fill="#57504C"/>
<path d="M58.8229 47.0513C59.7376 47.0513 60.4791 46.3097 60.4791 45.395C60.4791 44.4803 59.7376 43.7388 58.8229 43.7388C57.9082 43.7388 57.1666 44.4803 57.1666 45.395C57.1666 46.3097 57.9082 47.0513 58.8229 47.0513Z" fill="#57504C"/>
<path d="M60.8104 39.6533C61.3592 39.6533 61.8042 39.2084 61.8042 38.6595C61.8042 38.1107 61.3592 37.6658 60.8104 37.6658C60.2616 37.6658 59.8167 38.1107 59.8167 38.6595C59.8167 39.2084 60.2616 39.6533 60.8104 39.6533Z" fill="#57504C"/>
<path d="M57.8292 33.9116C58.378 33.9116 58.8229 33.4667 58.8229 32.9178C58.8229 32.369 58.378 31.9241 57.8292 31.9241C57.2804 31.9241 56.8354 32.369 56.8354 32.9178C56.8354 33.4667 57.2804 33.9116 57.8292 33.9116Z" fill="#57504C"/>
</svg>
