<svg width="80" height="80" viewBox="0 0 80 80" fill="none" xmlns="http://www.w3.org/2000/svg">
<circle cx="40" cy="40" r="40" fill="white"/>
<path d="M59.4737 42.2456C59.1432 41.8169 58.5277 41.7372 58.0987 42.0677C57.6698 42.3983 57.5902 43.0139 57.9208 43.4427C58.9287 44.7502 59.4614 46.3163 59.4614 47.9716C59.4614 48.513 59.9004 48.952 60.4418 48.952C60.9832 48.952 61.4222 48.513 61.4222 47.9716C61.4222 45.8792 60.7484 43.8991 59.4737 42.2456Z" fill="#57504C"/>
<path d="M56.1793 35.668C58.1698 34.3245 59.4813 32.0484 59.4813 29.4718C59.4813 25.352 56.1296 22.0002 52.0098 22.0002C47.8899 22.0002 44.5382 25.352 44.5382 29.4718C44.5382 32.0473 45.8484 34.3225 47.8375 35.6662C46.3885 36.1567 45.0318 36.9037 43.8273 37.8831C42.8082 36.9029 41.4404 36.3384 40.0001 36.3384C38.5599 36.3384 37.1921 36.9031 36.1735 37.8831C34.9687 36.9037 33.6118 36.1567 32.1626 35.6661C34.1517 34.3224 35.4619 32.0472 35.4619 29.4716C35.4619 25.3518 32.1102 22 27.9903 22C23.871 22 20.5197 25.3518 20.5197 29.4716C20.5197 32.0482 21.831 34.3242 23.8212 35.6678C18.7052 37.4062 15.0124 42.2522 15.0014 47.9463C15.0011 47.955 15 47.9632 15 47.9718C15 49.477 15.8553 51.6983 19.9301 53.7335C22.8336 55.1837 26.8236 56.2738 31.4689 56.8858C34.1938 57.2452 37.0641 57.4275 40.0001 57.4275C42.9368 57.4275 45.8074 57.2453 48.5321 56.8858C53.177 56.2738 57.1668 55.1837 60.0702 53.7335C64.1447 51.6982 65 49.477 65 47.9718C65 42.2668 61.3032 37.409 56.1793 35.668ZM46.499 29.4718C46.499 26.4331 48.9712 23.961 52.0098 23.961C55.0483 23.961 57.5205 26.4332 57.5205 29.4718C57.5205 32.51 55.0483 34.9815 52.0098 34.9815C48.9712 34.9815 46.499 32.51 46.499 29.4718ZM37.0748 39.8309C37.7409 38.8719 38.8343 38.2992 40 38.2992C41.1663 38.2992 42.2601 38.8719 42.9261 39.8309C42.9262 39.8312 42.9264 39.8313 42.9265 39.8315C43.3421 40.4291 43.5616 41.1308 43.5616 41.8609C43.5616 43.8249 41.9639 45.4227 39.9999 45.4227C38.0364 45.4227 36.4392 43.8248 36.4392 41.8608C36.4392 41.1296 36.6586 40.4281 37.0748 39.8309ZM22.4804 29.4718C22.4804 26.4331 24.9521 23.961 27.9901 23.961C31.0288 23.961 33.5009 26.4332 33.5009 29.4718C33.5009 32.51 31.0287 34.9815 27.9901 34.9815C24.9521 34.9815 22.4804 32.51 22.4804 29.4718ZM30.6171 54.7844C26.6635 54.1823 23.2885 53.2191 20.8063 51.9794C18.3337 50.7445 16.9692 49.3258 16.9613 47.9835C16.9613 47.9796 16.9619 47.9758 16.9619 47.9719C16.9618 41.8902 21.9092 36.9424 27.9902 36.9424C30.5773 36.9424 33.0456 37.8361 35.0208 39.4731C34.6646 40.2133 34.4785 41.0247 34.4785 41.861C34.4785 43.5678 35.2569 45.096 36.4771 46.1099C33.0502 47.5031 30.626 50.8652 30.6171 54.7844ZM47.4235 55.0468C45.0389 55.325 42.5465 55.4669 40 55.4669C37.4541 55.4669 34.9621 55.325 32.5774 55.0468V54.8061C32.5774 50.7132 35.9071 47.3835 40 47.3835C44.0934 47.3835 47.4235 50.7132 47.4235 54.8061V55.0468ZM59.1939 51.9793C56.712 53.2191 53.3374 54.1822 49.3842 54.7843C49.3753 50.8651 46.9509 47.5032 43.5237 46.1098C44.7441 45.0959 45.5228 43.5677 45.5228 41.8608C45.5228 41.0255 45.3366 40.2139 44.9801 39.473C46.9544 37.8359 49.4224 36.9422 52.01 36.9422C58.0915 36.9423 63.0393 41.8901 63.0393 47.9717C63.0393 49.3176 61.6736 50.7408 59.1939 51.9793Z" fill="#57504C"/>
<path d="M56.5359 39.9426C55.2743 39.9426 55.2721 41.9034 56.5359 41.9034C57.7976 41.9034 57.7997 39.9426 56.5359 39.9426Z" fill="#57504C"/>
</svg>
