<svg width="80" height="80" viewBox="0 0 80 80" fill="none" xmlns="http://www.w3.org/2000/svg">
<circle cx="40" cy="40" r="40" fill="white"/>
<path d="M56.4116 17H26.0178C23.8024 17 22 18.8051 22 21.0238V57.9762C22 60.1949 23.8024 62 26.0178 62H56.4116C57.7612 62 58.8593 60.9003 58.8593 59.5486V19.4514C58.8593 18.0997 57.7612 17 56.4116 17ZM23.7552 57.9762C23.7552 56.7267 24.7702 55.7102 26.0178 55.7102H53.5935V60.2422H26.0178C24.7702 60.2422 23.7552 59.2257 23.7552 57.9762ZM57.1041 59.5486C57.1041 59.9311 56.7934 60.2422 56.4116 60.2422H55.3487V55.7103H56.4116C56.652 55.7103 56.8844 55.6754 57.1041 55.6104V59.5486ZM57.1041 53.2589C57.1041 53.6413 56.7934 53.9525 56.4116 53.9525H27.2657V40.3099C27.2657 39.8245 26.8728 39.431 26.3881 39.431C25.9034 39.431 25.5105 39.8245 25.5105 40.3099V53.9849C24.8656 54.0666 24.2678 54.3015 23.7552 54.6526V21.0238C23.7552 19.949 24.5064 19.0472 25.5105 18.8159V32.3997C25.5105 32.8851 25.9034 33.2786 26.3881 33.2786C26.8728 33.2786 27.2657 32.8851 27.2657 32.3997V18.7578H56.4116C56.7934 18.7578 57.1041 19.0689 57.1041 19.4514V53.2589Z" fill="#57504C"/>
<path d="M26.353 35.5427C25.8847 35.5427 25.505 35.9226 25.505 36.3908C25.505 36.8591 25.8847 37.2387 26.353 37.2387C26.8213 37.2387 27.201 36.8591 27.201 36.3908V36.3902C27.201 35.922 26.8213 35.5427 26.353 35.5427Z" fill="#57504C"/>
<path fill-rule="evenodd" clip-rule="evenodd" d="M50.2664 32.8214C50.2664 32.8214 50.2664 32.8214 50.2664 32.8214C50.2661 32.8215 50.2639 32.8225 50.2599 32.8241C50.1966 32.8505 49.6859 33.0635 49.2256 33.5103C49.1631 33.571 49.1014 33.636 49.042 33.7054C48.8765 33.8989 48.7278 34.1267 48.623 34.3914C48.5795 34.4983 48.5456 34.6081 48.5192 34.7186C48.4856 34.859 48.4641 35.0007 48.4503 35.1393C48.2644 34.8734 47.9976 34.6909 47.7446 34.5677C47.6316 34.5127 47.5214 34.4695 47.4223 34.436C47.1898 34.3574 47.0191 34.332 47.0191 34.332C47.0191 34.332 46.9756 34.5006 46.9574 34.7475C46.9519 34.822 46.9487 34.9036 46.9497 34.9898C46.9517 35.162 46.9704 35.3527 47.0208 35.5421C47.0583 35.6829 47.1133 35.823 47.192 35.9543C47.2011 35.9694 47.2104 35.9843 47.2201 35.9992C47.2205 35.9998 47.221 36.0005 47.2214 36.0012C47.338 36.1751 47.4871 36.3145 47.6457 36.4261C47.7491 36.4987 47.8565 36.5596 47.9617 36.6104C47.9606 36.6114 47.9594 36.6124 47.9583 36.6134C47.932 36.6364 47.8889 36.6727 47.8295 36.7176C47.6376 36.8627 47.2752 37.0986 46.7549 37.2749C46.5873 37.3316 46.4035 37.3822 46.2037 37.4216C45.5105 37.5582 44.6254 37.56 43.5662 37.2175C43.3927 37.1614 43.2146 37.0961 43.0319 37.0206C42.9863 37.0018 42.9405 36.9823 42.8943 36.9622C42.8645 36.9492 42.8345 36.936 42.8045 36.9224V35.6198C42.8786 35.6148 42.9559 35.6068 43.0346 35.5943C43.1733 35.5722 43.3163 35.5364 43.4543 35.4795C43.5003 35.4606 43.5457 35.4393 43.5902 35.4154C43.6379 35.3899 43.6845 35.3613 43.7296 35.3295C43.7305 35.3288 43.7314 35.3282 43.7323 35.3276C44.0371 35.1169 44.2302 34.8001 44.3506 34.5144C44.3813 34.4415 44.4073 34.3706 44.4292 34.3039C44.513 34.0486 44.5367 33.8565 44.5367 33.8565C44.5367 33.8565 44.3509 33.8118 44.0847 33.8008C43.7565 33.7871 43.3061 33.8245 42.9311 34.0597C42.9234 34.0645 42.9158 34.0694 42.9081 34.0744C42.9156 34.05 42.9228 34.0254 42.9296 34.0007C42.96 33.8914 42.9841 33.78 43.0007 33.6667C43.0175 33.552 43.0266 33.4353 43.0266 33.3166C43.0266 33.146 43.007 32.9818 42.9735 32.8257C42.9309 32.6279 42.866 32.4432 42.79 32.2748C42.6417 31.9464 42.4515 31.6802 42.3036 31.501C42.1687 31.3374 42.0692 31.2463 42.0692 31.2463C43.2145 29.9955 43.2149 29.9958 43.2154 29.9962L43.2162 29.997L43.218 29.9987L43.2219 30.0023C43.2234 30.0037 43.225 30.0052 43.2267 30.0068C43.228 30.008 43.2294 30.0092 43.2307 30.0105C43.2371 30.0165 43.2444 30.0234 43.2527 30.0313C43.2691 30.047 43.2892 30.0666 43.3124 30.0899C43.3586 30.1363 43.4178 30.1982 43.4856 30.2743C43.6198 30.4251 43.7947 30.6399 43.97 30.9098C44.1694 31.2166 44.3949 31.6342 44.5467 32.1393C44.5727 32.1426 44.5975 32.146 44.6209 32.1494C44.7017 32.1611 44.7697 32.1732 44.8221 32.1835C44.8484 32.1887 44.871 32.1934 44.8895 32.1975C44.8988 32.1996 44.9072 32.2014 44.9144 32.2031L44.9246 32.2055L44.9291 32.2065L44.9322 32.2073C44.9326 32.2074 44.933 32.2075 44.717 33.1066C44.717 33.1067 44.717 33.1067 44.717 33.1068L44.9332 32.2075C45.3908 32.3176 45.7636 32.6054 45.9907 32.9834C46.3435 32.7145 46.7995 32.5848 47.2682 32.6544L47.1331 33.564C47.1331 33.564 47.1332 33.5639 47.1332 33.5639C47.2684 32.6544 47.2688 32.6545 47.2692 32.6546L47.2723 32.655L47.2769 32.6557L47.2871 32.6573C47.2944 32.6585 47.3028 32.6598 47.3121 32.6614C47.3308 32.6646 47.3534 32.6686 47.3797 32.6736C47.432 32.6836 47.4994 32.6977 47.5786 32.7169C47.5999 32.7221 47.6222 32.7277 47.6455 32.7338C47.9708 32.3229 48.3315 32.0195 48.6277 31.8087C48.889 31.6226 49.1292 31.4878 49.3073 31.3976C49.3973 31.352 49.4733 31.3169 49.5304 31.2917C49.5559 31.2805 49.5769 31.2715 49.5922 31.2651C49.8009 31.1746 50.0296 31.1254 50.2664 31.1254C50.5512 31.1494 51.5935 31.7654 51.952 32.6337C51.9294 32.8964 51.8475 33.1699 51.7482 33.4119L51.8418 33.4492L50.2676 37.3992L48.9696 41.5852C48.6932 42.4769 47.748 42.9775 46.855 42.7052C45.6523 42.3384 44.447 42.1499 43.5296 42.0548C43.0746 42.0076 42.6992 41.9843 42.4417 41.9728C42.3131 41.967 42.2145 41.9642 42.1507 41.9629C42.1188 41.9622 42.0957 41.9619 42.0819 41.9618C42.0758 41.9617 42.0716 41.9617 42.0692 41.9617C42.0678 41.9617 42.0658 41.9617 42.0632 41.9617C42.0613 41.9618 42.0591 41.9618 42.0565 41.9618C42.0427 41.9619 42.0195 41.9622 41.9876 41.9629C41.9238 41.9642 41.8252 41.967 41.6966 41.9728C41.4391 41.9843 41.0637 42.0076 40.6087 42.0548C39.6913 42.1499 38.486 42.3384 37.2833 42.7052C36.3903 42.9775 35.4452 42.4769 35.1687 41.5852L33.8708 37.3992L32.2965 33.4492C32.0475 32.8245 32.1912 32.1116 32.6628 31.6321C33.1344 31.1526 33.8448 30.9971 34.4736 31.2357L33.8719 32.8213L35.4709 36.8333L36.7886 41.083C39.4683 40.2657 42.0692 40.2657 42.0692 40.2657C42.0692 40.2657 44.67 40.2657 47.3497 41.083L48.6674 36.8333L50.2664 32.8214ZM37.9392 37.4219C38.632 37.5582 39.5167 37.5598 40.5765 37.2174C40.7501 37.1613 40.9284 37.0959 41.1113 37.0205C41.1569 37.0017 41.2028 36.9822 41.2489 36.9622C41.2788 36.9492 41.3087 36.9359 41.3388 36.9224V35.6198C41.2646 35.6148 41.1873 35.6068 41.1087 35.5943C40.9704 35.5723 40.8278 35.5366 40.6902 35.4801C40.6438 35.461 40.5979 35.4395 40.5529 35.4154C40.5044 35.3893 40.4569 35.3602 40.411 35.3276C40.4105 35.3272 40.41 35.3269 40.4096 35.3266C40.0989 35.1114 39.9045 34.7859 39.785 34.4959C39.7566 34.4272 39.7325 34.3604 39.712 34.2976C39.6298 34.0454 39.6065 33.8565 39.6065 33.8565C39.6065 33.8565 39.7922 33.8121 40.0577 33.8009C40.3869 33.7869 40.8388 33.8239 41.2121 34.0596C41.2198 34.0645 41.2275 34.0694 41.2351 34.0744C41.2278 34.0491 41.2206 34.0236 41.2138 33.9979C41.1851 33.8906 41.161 33.7797 41.1439 33.6665C41.1267 33.5518 41.1167 33.4347 41.1167 33.3166C41.1167 33.1468 41.136 32.9833 41.1691 32.8279C41.2114 32.629 41.2764 32.4432 41.3524 32.2739C41.4999 31.9459 41.689 31.6801 41.8359 31.501C41.9701 31.3374 42.0692 31.2463 42.0692 31.2463L43.2145 29.9955C42.5651 29.4008 41.5685 29.4021 40.9206 29.9984L42.0692 31.2463C40.9206 29.9984 40.9202 29.9988 40.9198 29.9992L40.9189 30L40.9171 30.0016L40.9132 30.0052C40.9105 30.0077 40.9076 30.0105 40.9044 30.0135C40.8981 30.0195 40.8907 30.0264 40.8826 30.0343C40.8662 30.0501 40.8462 30.0697 40.8231 30.093C40.777 30.1395 40.7181 30.2014 40.6506 30.2776C40.517 30.4285 40.343 30.6433 40.1686 30.9131C39.9705 31.2197 39.7467 31.6362 39.596 32.1395C39.5708 32.1427 39.5467 32.146 39.524 32.1492C39.4432 32.1609 39.3752 32.173 39.3228 32.1832C39.2966 32.1884 39.274 32.1931 39.2555 32.1971C39.2462 32.1992 39.2379 32.201 39.2307 32.2027L39.2205 32.205L39.2161 32.2061L39.213 32.2068C39.2126 32.2069 39.2122 32.207 39.4264 33.1034C39.4264 33.1034 39.4264 33.1035 39.4264 33.1035L39.212 32.2071C38.7535 32.3167 38.38 32.6049 38.1526 32.9834C37.7998 32.7145 37.3437 32.5848 36.8751 32.6544L37.0078 33.5485C37.0078 33.5484 37.0078 33.5484 37.0078 33.5483C36.8749 32.6544 36.8745 32.6545 36.8741 32.6546L36.8709 32.655L36.8664 32.6557L36.8561 32.6573C36.8488 32.6585 36.8405 32.6598 36.8311 32.6614C36.8125 32.6646 36.7898 32.6686 36.7636 32.6736C36.7113 32.6836 36.6438 32.6977 36.5647 32.7169C36.5445 32.7219 36.5234 32.7272 36.5014 32.7329C36.1746 32.321 35.8119 32.0172 35.5141 31.8063C35.2513 31.6202 35.0093 31.4852 34.8288 31.3946C34.7376 31.3489 34.6597 31.3133 34.5995 31.2872C34.5693 31.2742 34.5434 31.2634 34.5223 31.2548C34.5117 31.2505 34.5024 31.2468 34.4942 31.2436C34.4901 31.242 34.4864 31.2406 34.4829 31.2392L34.478 31.2373L34.4746 31.2361C34.4741 31.2359 34.4736 31.2357 33.8719 32.8213C33.8719 32.8213 34.425 33.0312 34.9196 33.5087C35.1578 33.7387 35.3824 34.0308 35.5252 34.3914C35.5666 34.4986 35.6003 34.6077 35.6267 34.7179C35.6602 34.8572 35.682 34.9983 35.693 35.1393C35.8779 34.8748 36.1428 34.6929 36.3945 34.5697C36.509 34.5137 36.6207 34.4699 36.721 34.436C36.9534 34.3574 37.1242 34.332 37.1242 34.332C37.1242 34.332 37.1677 34.5006 37.1859 34.7474C37.1921 34.8312 37.1953 34.9239 37.193 35.0221C37.1891 35.1857 37.1697 35.3644 37.1224 35.5421C37.0845 35.6846 37.0286 35.8265 36.9483 35.9592C36.9401 35.9726 36.9318 35.9859 36.9231 35.9992C36.9227 35.9998 36.9223 36.0005 36.9218 36.0012C36.8069 36.1728 36.6602 36.3108 36.5039 36.4216C36.3986 36.4962 36.2889 36.5585 36.1816 36.6104C36.1823 36.611 36.183 36.6116 36.1837 36.6123C36.2099 36.6352 36.2533 36.6719 36.3137 36.7177C36.5048 36.8624 36.8653 37.0975 37.3831 37.2736C37.5519 37.331 37.7374 37.3822 37.9392 37.4219ZM38.7787 33.9587C38.9633 33.9359 39.1876 33.9082 39.4604 33.8745L38.7787 33.9587C38.7787 33.9587 38.7787 33.9586 38.7787 33.9587ZM38.3837 34.0073C38.3833 34.0074 38.3829 34.0075 38.3825 34.0076C38.382 34.0077 38.3815 34.0078 38.381 34.0078L38.3822 34.0075L38.3837 34.0073ZM37.9315 34.1238C37.9315 34.1237 37.9315 34.1238 37.9315 34.1238C37.7521 34.17 37.5341 34.2263 37.2692 34.2946L37.9315 34.1238ZM37.3024 35.3377C37.3014 35.3368 37.3014 35.3368 37.3024 35.3377V35.3377ZM46.8767 34.2953L46.2118 34.1237C46.2118 34.1238 46.2118 34.1237 46.2118 34.1237C46.3918 34.1702 46.6107 34.2267 46.8767 34.2953ZM45.7609 34.0076C45.7614 34.0077 45.7619 34.0078 45.7624 34.0078L45.7611 34.0075L45.7596 34.0073C45.76 34.0074 45.7604 34.0075 45.7609 34.0076ZM45.3646 33.9586L44.6841 33.8747C44.9563 33.9083 45.1803 33.9358 45.3646 33.9586C45.3646 33.9586 45.3645 33.9586 45.3646 33.9586ZM46.8408 35.3377C46.8418 35.3368 46.8419 35.3368 46.8408 35.3377V35.3377Z" fill="#57504C"/>
</svg>
