<svg width="80" height="80" viewBox="0 0 80 80" fill="none" xmlns="http://www.w3.org/2000/svg">
<circle cx="40" cy="40" r="40" fill="white"/>
<path d="M59.0616 41.489C59.8303 40.9858 60.3395 40.1175 60.3395 39.132V35.1427C60.3395 34.1259 59.7887 33.1849 58.902 32.6873C58.9019 32.6872 58.9019 32.6872 58.9018 32.6871C58.678 32.5617 53.6872 29.8066 45.5789 28.8499L45.9098 28.519C45.9529 28.5203 45.9956 28.521 46.0383 28.521C47.2149 28.521 48.3502 28.0275 49.1534 27.1672C49.9677 26.2946 50.3708 25.1558 50.2885 23.9604C50.1432 21.8539 48.4451 20.1558 46.3386 20.0104C43.7526 19.8332 41.5478 22.0797 41.7975 24.6673L40.0001 26.4647L37.997 24.4612C38.1127 22.0679 36.1352 20 33.7414 20C31.3922 20 29.4809 21.9112 29.4809 24.2605C29.4809 26.6098 31.3921 28.521 33.7414 28.521C33.8537 28.521 33.9662 28.5165 34.0785 28.5076L34.3846 28.8137C26.7816 29.6626 22.0887 32.1251 21.1151 32.6776L21.098 32.6873C20.2113 33.185 19.6604 34.126 19.6604 35.1427V39.132C19.6604 40.1175 20.1696 40.9858 20.9384 41.489L18.9996 43.811C17.7101 45.3552 17 47.2769 17 49.2222C17 53.8185 20.8831 57.7017 25.4795 57.7017H36.1153C36.6115 57.7017 37.0138 57.2994 37.0138 56.8032C37.0138 56.3071 36.6115 55.9048 36.1153 55.9048H25.4795C21.8571 55.9048 18.7969 52.8445 18.7969 49.2222C18.7969 47.697 19.3587 46.1843 20.3788 44.9626L22.9263 41.9116C24.2707 41.6947 25.2917 40.4931 25.2917 39.132V36.9342C27.6575 35.9468 32.9264 34.1556 39.9999 34.1556C44.9874 34.1556 50.0903 35.0054 54.7081 36.934V39.132C54.7081 40.4933 55.7293 41.6946 57.0736 41.9116L59.6227 44.9644C60.6313 46.1722 61.1925 47.6865 61.203 49.2222C61.203 52.9071 58.2053 55.9048 54.5205 55.9048H44.0198C43.5237 55.9048 43.1214 56.3071 43.1214 56.8032C43.1214 57.2994 43.5237 57.7017 44.0198 57.7017H54.5205C59.1961 57.7017 63 53.8978 63 49.2161C62.9866 47.2587 62.277 45.3397 61.0021 43.8128L59.0616 41.489ZM36.7238 28.6119L35.0344 26.9223C34.8254 26.7132 34.5143 26.6186 34.2239 26.6764C34.065 26.708 33.9027 26.724 33.7413 26.724C32.3829 26.724 31.2777 25.6188 31.2777 24.2604C31.2777 22.902 32.3829 21.7968 33.7413 21.7968C35.2379 21.7968 36.4094 23.1768 36.1733 24.6535C36.1279 24.9378 36.2215 25.2267 36.4251 25.4303L38.7294 27.7353C38.6555 27.8084 37.9595 28.5085 37.9048 28.5548C37.5111 28.5688 37.1171 28.5879 36.7238 28.6119ZM21.4571 35.1427C21.4571 34.7649 21.6726 34.42 22.0019 34.2403C22.9955 33.6765 28.1072 31.0012 36.4712 30.4293C37.0523 30.3891 37.6344 30.3607 38.2167 30.3434C38.4716 30.3356 38.7068 30.2733 38.8963 30.0924L43.3897 25.6162C43.6061 25.3998 43.6974 25.0881 43.6321 24.7892C43.2853 23.2026 44.5964 21.6898 46.2149 21.8032C47.4312 21.8871 48.4118 22.8677 48.4957 24.084C48.6023 25.6285 47.2282 26.9146 45.693 26.6996C45.4142 26.6606 45.133 26.7548 44.9336 26.9541L42.963 28.9246C42.7149 29.1728 42.6339 29.5428 42.7558 29.8719C42.8775 30.2009 43.1799 30.429 43.5298 30.4557C52.3688 31.1322 57.7959 34.1272 58.0227 34.2543C58.3434 34.4345 58.5427 34.7749 58.5427 35.1428V39.1321C58.5427 39.6937 58.0861 40.1504 57.5247 40.1509C57.5245 40.1509 57.5242 40.1509 57.5239 40.1509C56.9621 40.1509 56.5051 39.6938 56.5051 39.132V36.3433C56.5051 35.9923 56.2932 35.6656 55.9726 35.5226C51.009 33.3083 45.4106 32.3586 40 32.3586C32.2185 32.3586 26.5011 34.4444 24.2231 35.4364C23.8257 35.6094 23.4948 35.8678 23.4948 36.3432V39.132C23.4948 39.6937 23.0378 40.1508 22.476 40.1508C22.4757 40.1508 22.4754 40.1508 22.4752 40.1508C21.9137 40.1503 21.4571 39.6935 21.4571 39.132V35.1427Z" fill="#57504C"/>
<path d="M39.7464 57.6327C40.5003 57.9465 41.2566 57.125 40.8911 56.3997C40.7192 56.0583 40.3369 55.8573 39.9577 55.9144C39.5792 55.9715 39.2705 56.2722 39.2044 56.6494C39.1329 57.0574 39.3626 57.4755 39.7464 57.6327Z" fill="#57504C"/>
</svg>
