<svg width="80" height="80" viewBox="0 0 80 80" fill="none" xmlns="http://www.w3.org/2000/svg">
<circle cx="40" cy="40" r="40" fill="white"/>
<path d="M49.2784 31.8362C49.2749 31.8309 49.271 31.8259 49.2674 31.8207C49.1142 31.6061 48.9565 31.3945 48.7931 31.1867C47.7008 29.7973 47.0992 28.0588 47.0992 26.2913V22.3727C48.4518 22.2306 49.5096 21.0835 49.5096 19.6939C49.5096 18.2085 48.3011 17 46.8157 17H32.6862C31.2008 17 29.9924 18.2085 29.9924 19.6939C29.9924 21.0822 31.0482 22.2284 32.399 22.3722V26.293C32.399 28.0572 31.7996 29.7927 30.7111 31.1809C30.7092 31.1833 30.7071 31.1859 30.7052 31.1883C30.5441 31.3936 30.3881 31.6026 30.2367 31.8145C30.2312 31.8223 30.2254 31.83 30.2202 31.8379C28.1388 34.7627 27 38.3054 27 41.9026V56.465C27 60.0549 29.9205 62.9754 33.5104 62.9754H45.9916C49.5814 62.9754 52.502 60.0549 52.502 56.465V52.1467C52.502 51.6509 52.0999 51.2488 51.604 51.2488C51.1082 51.2488 50.706 51.6509 50.706 52.1467V56.465C50.706 59.0645 48.5911 61.1795 45.9916 61.1795H33.5104C30.9109 61.1795 28.7959 59.0645 28.7959 56.465V41.9026C28.7959 38.6915 29.8083 35.529 31.6591 32.9135C33.7325 30.8934 37.062 30.9088 39.1148 32.9619C40.4997 34.3468 42.3189 35.0392 44.138 35.0392C45.617 35.0392 47.0958 34.5815 48.3415 33.6663C49.8748 36.1256 50.706 38.9956 50.706 41.9056V44.065C50.706 44.5609 51.1082 44.963 51.604 44.963C52.0999 44.963 52.502 44.5609 52.502 44.065V41.9056C52.502 38.3063 51.362 34.7621 49.2784 31.8362ZM31.7883 19.6939C31.7883 19.1987 32.1911 18.7959 32.6862 18.7959H46.8157C47.3109 18.7959 47.7137 19.1987 47.7137 19.6939C47.7137 20.189 47.3109 20.5918 46.8157 20.5918H32.6862C32.1912 20.5918 31.7883 20.189 31.7883 19.6939ZM40.3848 31.6919C38.5265 29.8337 35.8869 29.2241 33.514 29.8593C33.9596 28.7288 34.1949 27.5166 34.1949 26.293V22.3877H45.3033V26.2914C45.3033 28.4182 46.0149 30.5099 47.3068 32.1978C46.3961 32.8784 45.2955 33.2467 44.138 33.2467C42.7202 33.2467 41.3873 32.6945 40.3848 31.6919Z" fill="#57504C"/>
<path d="M51.604 47.2082C51.3678 47.2082 51.1362 47.3042 50.9692 47.4713C50.8021 47.6384 50.7061 47.8691 50.7061 48.1061C50.7061 48.3423 50.802 48.574 50.9692 48.7409C51.1362 48.9079 51.3678 49.0041 51.604 49.0041C51.8402 49.0041 52.0718 48.908 52.2388 48.7409C52.4058 48.574 52.502 48.3423 52.502 48.1061C52.502 47.87 52.4059 47.6383 52.2388 47.4713C52.0718 47.3042 51.8402 47.2082 51.604 47.2082Z" fill="#57504C"/>
</svg>
