<svg width="40" height="40" viewBox="0 0 40 40" fill="none" xmlns="http://www.w3.org/2000/svg">
<path fill-rule="evenodd" clip-rule="evenodd" d="M1.33333 20C1.33333 30.3093 9.69068 38.6667 20 38.6667C30.3093 38.6667 38.6667 30.3093 38.6667 20C38.6667 9.69068 30.3093 1.33333 20 1.33333C9.69068 1.33333 1.33333 9.69068 1.33333 20ZM20 0C8.95431 0 0 8.95431 0 20C0 31.0457 8.95431 40 20 40C31.0457 40 40 31.0457 40 20C40 8.95431 31.0457 0 20 0Z" fill="#57504C"/>
<path fill-rule="evenodd" clip-rule="evenodd" d="M16 19.9999C16 19.6317 16.2985 19.3332 16.6667 19.3332L22.3905 19.3332L19.286 16.2286C19.0256 15.9683 19.0256 15.5462 19.286 15.2858C19.5463 15.0255 19.9684 15.0255 20.2288 15.2858L24.4714 19.5285C24.7318 19.7888 24.7318 20.2109 24.4714 20.4713L20.2288 24.7139C19.9684 24.9743 19.5463 24.9743 19.286 24.7139C19.0256 24.4536 19.0256 24.0315 19.286 23.7711L22.3905 20.6665L16.6667 20.6665C16.2985 20.6665 16 20.3681 16 19.9999Z" fill="#57504C"/>
</svg>
