<svg width="16" height="16" viewBox="0 0 16 16" fill="none" xmlns="http://www.w3.org/2000/svg">
<path fill-rule="evenodd" clip-rule="evenodd" d="M1.11612 1.11612C1.60427 0.627961 2.39573 0.627961 2.88388 1.11612L14.8839 13.1161C15.372 13.6043 15.372 14.3957 14.8839 14.8839C14.3957 15.372 13.6043 15.372 13.1161 14.8839L1.11612 2.88388C0.627961 2.39573 0.627961 1.60427 1.11612 1.11612Z" fill="#FFFDF8"/>
<path fill-rule="evenodd" clip-rule="evenodd" d="M1.11612 14.8839C0.627961 14.3957 0.627961 13.6043 1.11612 13.1161L13.1161 1.11612C13.6043 0.627961 14.3957 0.627961 14.8839 1.11612C15.372 1.60427 15.372 2.39573 14.8839 2.88388L2.88388 14.8839C2.39573 15.372 1.60427 15.372 1.11612 14.8839Z" fill="#FFFDF8"/>
</svg>
