<svg width="80" height="80" viewBox="0 0 80 80" fill="none" xmlns="http://www.w3.org/2000/svg">
<circle cx="40" cy="40" r="40" fill="#F9B134"/>
<path d="M56.9962 24.6231C53.9514 22.9316 49.9219 22 45.6498 22H34.3151C32.2766 22 30.2886 22.2115 28.4062 22.6285C27.9431 22.7311 27.651 23.1896 27.7535 23.6526C27.8562 24.1158 28.3149 24.4077 28.7776 24.3053C30.5384 23.9152 32.4014 23.7174 34.3151 23.7174C38.3001 23.7174 42.0335 24.5722 44.8274 26.1244C47.4619 27.588 48.9128 29.4777 48.9128 31.4456C48.9128 33.4946 47.369 35.0407 46.074 35.9769C45.8506 36.1385 45.7183 36.3974 45.7183 36.6728V55.4888C45.7183 55.9623 45.3331 56.3475 44.8597 56.3475H23.7703C23.2968 56.3475 22.9116 55.9623 22.9116 55.4888V36.6728C22.9116 36.3973 22.7794 36.1384 22.5559 35.9769C21.261 35.0409 19.7174 33.4948 19.7174 31.4456C19.7174 29.5788 21.0195 28.1354 22.1118 27.2534C22.4808 26.9554 22.5384 26.4148 22.2405 26.0458C21.9424 25.6767 21.4018 25.6194 21.0329 25.9172C19.0488 27.5195 18 29.4312 18 31.4456C18 33.5268 19.1023 35.475 21.1942 37.1021V55.4888C21.1942 56.9093 22.3499 58.0649 23.7703 58.0649H44.8597H56.1946C57.615 58.0649 58.7706 56.9093 58.7706 55.4888V37.1022C60.8626 35.4751 61.9649 33.5269 61.9649 31.4456C61.9649 28.8262 60.2003 26.4033 56.9962 24.6231ZM57.4088 35.9769C57.1853 36.1385 57.0531 36.3974 57.0531 36.6728V55.4888C57.0531 55.9623 56.668 56.3475 56.1945 56.3475H47.2881C47.3834 56.0787 47.4358 55.7899 47.4358 55.4888V37.1022C49.5278 35.475 50.6301 33.5268 50.6301 31.4456C50.6301 28.8261 48.8655 26.4032 45.6614 24.6231C45.0643 24.2914 44.4289 23.9894 43.7616 23.7174H45.6498C49.6348 23.7174 53.3682 24.5722 56.1621 26.1244C58.7967 27.5879 60.2475 29.4777 60.2475 31.4456C60.2475 33.4947 58.7038 35.0408 57.4088 35.9769Z" fill="#57504C"/>
<path d="M30.1367 49.3145C30.2958 49.59 30.5843 49.7441 30.8812 49.7441C31.0268 49.7441 31.1745 49.7069 31.3097 49.6288L38.1791 45.6627C38.5898 45.4255 38.7305 44.9005 38.4934 44.4897C38.2563 44.0791 37.7311 43.9384 37.3204 44.1755L30.451 48.1416C30.0403 48.3787 29.8995 48.9038 30.1367 49.3145Z" fill="#57504C"/>
<path d="M30.1367 42.4447C30.2958 42.7201 30.5843 42.8742 30.8812 42.8742C31.0268 42.8742 31.1745 42.837 31.3097 42.759L38.1791 38.7928C38.5898 38.5557 38.7305 38.0306 38.4934 37.6199C38.2563 37.2092 37.7311 37.0685 37.3204 37.3056L30.451 41.2717C30.0403 41.5089 29.8995 42.034 30.1367 42.4447Z" fill="#57504C"/>
<path d="M30.8812 36.0048C31.0268 36.0048 31.1745 35.9676 31.3097 35.8896L38.1791 31.9235C38.5898 31.6863 38.7305 31.1612 38.4934 30.7505C38.2563 30.34 37.7311 30.1991 37.3204 30.4362L30.451 34.4023C30.0403 34.6395 29.8995 35.1646 30.1367 35.5753C30.2957 35.8508 30.5843 36.0048 30.8812 36.0048Z" fill="#57504C"/>
<path d="M24.9079 25.4906C25.382 25.4906 25.7666 25.1061 25.7666 24.6319C25.7666 24.1577 25.382 23.7732 24.9079 23.7732H24.9072C24.433 23.7732 24.0488 24.1577 24.0488 24.6319C24.0488 25.1061 24.4337 25.4906 24.9079 25.4906Z" fill="#57504C"/>
</svg>
