<svg width="80" height="80" viewBox="0 0 80 80" fill="none" xmlns="http://www.w3.org/2000/svg">
<circle cx="40" cy="40" r="40" fill="#F9B134"/>
<path d="M34.6412 50.084C34.6412 50.5364 34.2744 50.9032 33.8219 50.9032C33.3694 50.9032 33.0026 50.5364 33.0026 50.084C33.0026 49.6315 33.3694 49.2647 33.8219 49.2647C34.2744 49.2647 34.6412 49.6315 34.6412 50.084ZM57.896 51.8198C55.4583 54.967 51.8124 56.7716 47.8928 56.7718H31.7886C27.869 56.7716 24.223 54.967 21.7854 51.8198C19.2524 48.5494 18.3936 44.3792 19.4292 40.3782L23.507 24.6137C23.6012 24.2523 23.9273 24 24.3001 24H24.3004H31.5509C32.0033 24 32.3702 24.3669 32.3702 24.8193C32.3702 26.1068 33.4177 27.1543 34.7052 27.1543C35.9927 27.1543 37.0402 26.1068 37.0402 24.8193C37.0402 24.3669 37.4071 24 37.8595 24H45.9296C46.382 24 46.7488 24.3669 46.7488 24.8193C46.7488 25.2711 47.1164 25.6386 47.5681 25.6386C48.0199 25.6386 48.3874 25.2711 48.3874 24.8193C48.3874 24.3669 48.7543 24 49.2067 24H55.3787C55.7521 24 56.0783 24.2525 56.1718 24.614L60.2523 40.3782C61.2878 44.3792 60.429 48.5494 57.896 51.8198ZM58.6658 40.7889L54.7444 25.6386H49.8855C49.5474 26.5923 48.6362 27.2772 47.5681 27.2772C46.4999 27.2772 45.5887 26.5923 45.2506 25.6386H38.5938C38.2151 27.4379 36.6154 28.7929 34.7051 28.7929C32.7948 28.7929 31.1952 27.4379 30.8164 25.6386H25.3592C25.3592 25.6386 29.1495 40.2843 29.1789 40.3974C29.7746 42.698 30.7659 44.8511 32.1243 46.7962C32.3833 47.1673 32.2924 47.678 31.9214 47.9371C31.5503 48.196 31.0397 48.1053 30.7806 47.7343C29.3091 45.6279 28.2399 43.31 27.5958 40.8202L24.3 28.0882L21.0155 40.7889C20.1079 44.2951 20.8607 47.95 23.0808 50.8165C25.2059 53.5601 28.3794 55.1333 31.7886 55.1333H39.87C38.5852 54.5868 37.3473 53.9068 36.1897 53.1096C35.817 52.853 35.7229 52.3428 35.9795 51.9702C36.2361 51.5976 36.7463 51.5034 37.1189 51.7601C40.324 53.9648 44.0527 55.1309 47.8928 55.1334C51.3019 55.1334 54.4755 53.5602 56.6005 50.8166C58.8206 47.95 59.5735 44.2951 58.6658 40.7889ZM42.4884 45.7933C42.4884 44.1669 41.1653 42.8438 39.539 42.8438C37.9126 42.8438 36.5895 44.1669 36.5895 45.7933C36.5895 47.4197 37.9126 48.7428 39.539 48.7428C41.1653 48.7428 42.4884 47.4196 42.4884 45.7933ZM40.8498 45.7933C40.8498 46.5161 40.2617 47.1042 39.539 47.1042C38.8162 47.1042 38.2281 46.5161 38.2281 45.7933C38.2281 45.0705 38.8162 44.4824 39.539 44.4824C40.2617 44.4824 40.8498 45.0705 40.8498 45.7933ZM51.9923 36.3714C51.9923 33.706 49.8238 31.5375 47.1584 31.5375C44.4931 31.5375 42.3246 33.706 42.3246 36.3714C42.3246 39.0367 44.4931 41.2052 47.1584 41.2052C49.8238 41.2052 51.9923 39.0367 51.9923 36.3714ZM50.3537 36.3714C50.3537 38.1333 48.9203 39.5666 47.1584 39.5666C45.3965 39.5666 43.9632 38.1333 43.9632 36.3714C43.9632 34.6095 45.3965 33.1761 47.1584 33.1761C48.9203 33.1761 50.3537 34.6095 50.3537 36.3714Z" fill="#57504C"/>
</svg>
