<svg width="80" height="80" viewBox="0 0 80 80" fill="none" xmlns="http://www.w3.org/2000/svg">
<circle cx="40" cy="40" r="40" fill="white"/>
<path d="M54.6 47.3L54.2 52C54.2 52.2 54.2 52.4 54.4 52.6C54.5 52.8 54.7 52.9 54.9 52.9C55.3 52.9 55.7 52.6 55.8 52.2L57.5 34.1C58.3 34 58.9 33.2 58.9 32.3V30.1C58.9 29.6 58.7 29.2 58.4 28.9C58.1 28.6 57.6 28.4 57.2 28.4H35C40.4 25.7 43.9 20 43.9 13.8C43.9 13.4 43.5 13 43.1 13C42.7 13 42.3 13.4 42.3 13.8C42.3 21.8 35.9 28.4 28.1 28.4H22.8H22.7C21.8 28.4 21 29.2 21 30.2V32.4C21 33.3 21.6 34 22.4 34.2L24.8 58C24.9 58.9 25.6 59.6 26.5 59.6H53.4C54.3 59.6 55 58.9 55.1 58L55.4 55.1C55.4 54.9 55.4 54.7 55.2 54.5C55.1 54.3 54.9 54.2 54.7 54.2C54.3 54.2 53.9 54.5 53.8 54.9L53.5 57.8C53.5 57.9 53.4 57.9 53.4 57.9H26.6C26.5 57.9 26.5 57.8 26.5 57.8L25.5 47.3L24.9 40.7L24.1 34.1H32.1C32.5 34.1 32.9 33.7 32.9 33.3C32.9 32.9 32.5 32.5 32.1 32.5H22.8C22.7 32.5 22.7 32.4 22.7 32.4V30.2C22.7 30.1 22.8 30.1 22.8 30.1H57.2C57.3 30.1 57.3 30.2 57.3 30.2V32.4C57.3 32.5 57.2 32.5 57.2 32.5H35.1C34.7 32.5 34.3 32.9 34.3 33.3C34.3 33.8 34.7 34.1 35.1 34.1H55.9L55.3 40.7L54.6 47.3Z" fill="#57504C"/>
</svg>
