<svg width="35" height="35" viewBox="0 0 35 35" fill="none" xmlns="http://www.w3.org/2000/svg">
<path d="M29.8744 5.12562C26.5691 1.82034 22.1743 0 17.5 0C12.8257 0 8.4309 1.82034 5.12562 5.12562C1.82034 8.4309 0 12.8257 0 17.5C0 22.1743 1.82034 26.5691 5.12562 29.8744C8.4309 33.1797 12.8257 35 17.5 35C20.4192 35 23.317 34.2611 25.8799 32.8632C26.2113 32.6825 26.3333 32.2672 26.1525 31.9358C25.9718 31.6042 25.5565 31.4822 25.2251 31.6629C22.8625 32.9516 20.1911 33.6328 17.5 33.6328C8.60447 33.6328 1.36719 26.3955 1.36719 17.5C1.36719 8.6042 8.60447 1.36719 17.5 1.36719C26.3958 1.36719 33.6328 8.6042 33.6328 17.5C33.6328 21.8093 31.9548 25.8607 28.9077 28.9077C28.6407 29.1745 28.6407 29.6074 28.9077 29.8744C29.1745 30.1414 29.6074 30.1414 29.8744 29.8744C31.5075 28.2412 32.7839 26.3309 33.6678 24.1971C34.5519 22.063 35 19.8098 35 17.5C35 12.8257 33.1797 8.4309 29.8744 5.12562Z" fill="#57504C"/>
<path d="M27.4941 30.1638C27.4933 30.1643 27.4879 30.1686 27.4869 30.1691C27.1921 30.4041 27.1451 30.8314 27.3793 31.1267C27.5138 31.2965 27.7136 31.3846 27.9152 31.3846C28.0645 31.3846 28.2148 31.3363 28.3406 31.2372L28.3518 31.2282C28.646 30.9918 28.6922 30.5619 28.4559 30.2677C28.2193 29.9734 27.7883 29.9272 27.4941 30.1638Z" fill="#57504C"/>
<path d="M17.5 29.1211C18.3956 29.1211 19.2891 29.0183 20.1556 28.8156C20.1735 28.8116 20.1906 28.8063 20.2079 28.8007C22.7271 28.1966 24.9984 26.7485 26.6081 24.7175C28.2287 22.6726 29.1211 20.1094 29.1211 17.5C29.1211 11.0921 23.9079 5.87891 17.5 5.87891C17.1224 5.87891 16.8164 6.18492 16.8164 6.5625V8.30032C16.8164 8.6779 17.1224 8.98392 17.5 8.98392C17.8776 8.98392 18.1836 8.6779 18.1836 8.30032V7.26933C23.294 7.60738 27.3923 11.706 27.7304 16.8164H26.6997C26.3221 16.8164 26.0161 17.1224 26.0161 17.5C26.0161 17.8776 26.3221 18.1836 26.6997 18.1836H27.7315C27.4383 22.671 24.2775 26.4415 19.8432 27.4826C19.8328 27.485 19.8226 27.4885 19.8122 27.4914C19.2784 27.6145 18.7331 27.6941 18.1836 27.7304V26.6997C18.1836 26.3221 17.8776 26.0161 17.5 26.0161C17.1224 26.0161 16.8164 26.3221 16.8164 26.6997V27.7307C11.706 27.3923 7.60765 23.294 7.26933 18.1836H8.30032C8.6779 18.1836 8.98392 17.8776 8.98392 17.5C8.98392 17.1224 8.6779 16.8164 8.30032 16.8164H7.26959C7.39189 15.007 7.99698 13.2492 9.01302 11.7474L16.1328 18.8672C16.497 19.2314 16.9825 19.4322 17.5 19.432C18.0175 19.432 18.503 19.2314 18.8672 18.8672C19.6213 18.1134 19.6213 16.8866 18.8672 16.1328L11.7469 9.01222C12.0945 8.77697 12.4566 8.56228 12.8297 8.37135C13.1656 8.19939 13.2988 7.78763 13.1269 7.45144C12.9549 7.11552 12.5431 6.98227 12.207 7.15424C11.7065 7.41032 11.2235 7.70405 10.7647 8.03036L10.6913 7.95666C9.93721 7.20284 8.71048 7.20284 7.95666 7.95666C7.20284 8.71048 7.20284 9.93721 7.95666 10.6913L8.03062 10.7653C6.6394 12.7237 5.87891 15.0917 5.87891 17.5C5.87891 23.9079 11.0921 29.1211 17.5 29.1211ZM8.92357 8.92357C9.1444 8.70274 9.50382 8.70274 9.72466 8.92357L17.9005 17.0995C18.1214 17.3203 18.1214 17.6797 17.9005 17.9005C17.6797 18.1214 17.3206 18.1214 17.0995 17.9005L8.92357 9.72466C8.70274 9.50382 8.70274 9.1444 8.92357 8.92357Z" fill="#57504C"/>
<path d="M14.2578 7.73757C14.3259 7.73757 14.3951 7.72742 14.4634 7.70579L14.4851 7.69912C14.8466 7.5899 15.0509 7.20832 14.9417 6.84676C14.8325 6.48547 14.4506 6.28146 14.0893 6.39041L14.0527 6.40162C13.6925 6.51511 13.4925 6.8991 13.606 7.25905C13.6981 7.55092 13.9676 7.73757 14.2578 7.73757Z" fill="#57504C"/>
</svg>
