<svg width="92" height="138" viewBox="0 0 92 138" fill="none" xmlns="http://www.w3.org/2000/svg">
<path d="M91.2473 93.565C91.2473 118.071 72.6321 137.918 45.6236 137.918C17.7104 137.918 0 118.052 0 93.565C0 69.0591 18.6152 49.2119 45.6236 49.2119C73.5368 49.1926 91.2473 69.0591 91.2473 93.565ZM70.399 93.565C70.399 74.7958 60.7738 59.5879 45.6236 59.5879C29.1452 59.5879 20.8483 74.7958 20.8483 93.565C20.8483 112.334 30.4735 127.542 45.6236 127.542C63.0068 127.523 70.399 112.315 70.399 93.565Z" fill="#FEFEFE"/>
<mask id="mask0_285_263" style="mask-type:luminance" maskUnits="userSpaceOnUse" x="13" y="0" width="65" height="39">
<path d="M71.1693 12.2241C70.7843 13.1673 70.5918 14.1684 70.4956 15.1309C68.686 12.5513 64.9129 11.9931 64.9129 11.9931C64.9129 11.9931 63.9311 15.7854 65.7022 18.4805C66.4529 19.597 67.5502 20.3478 68.5897 20.8483C67.6465 21.676 60.4853 27.4512 48.473 22.0611V16.9982C49.628 16.9212 50.9756 16.6517 52.0921 15.8624C54.7487 14.0336 55.2299 10.145 55.2299 10.145C55.2299 10.145 51.5338 9.25949 48.8773 10.992C49.166 10.0488 49.3393 9.06698 49.3393 8.0467C49.3393 3.40734 45.6047 0 45.6047 0C45.6047 0 41.8893 3.40734 41.8893 8.0467C41.8893 9.06698 42.0819 10.068 42.3514 10.992C39.714 9.25949 35.9987 10.145 35.9987 10.145C35.9987 10.145 36.48 14.0336 39.1365 15.8624C40.2531 16.6517 41.6006 16.9212 42.7556 16.9982V22.0611C30.724 27.4512 23.5821 21.676 22.6389 20.8483C23.6784 20.3478 24.7757 19.597 25.5264 18.4805C27.2975 15.7854 26.3157 11.9931 26.3157 11.9931C26.3157 11.9931 22.5426 12.5513 20.733 15.1309C20.656 14.1491 20.4443 13.1673 20.0785 12.2241C18.3652 7.91195 13.6296 6.12165 13.6296 6.12165L19.8668 21.7145L25.0067 38.2315C35.4597 35.0551 45.6047 35.0551 45.6047 35.0551C45.6047 35.0551 55.7497 35.0551 66.2027 38.2315L71.3426 21.7145L77.5797 6.12165C77.599 6.12165 72.8826 7.91195 71.1693 12.2241Z" fill="white"/>
</mask>
<g mask="url(#mask0_285_263)">
<path d="M77.6175 -0.0374451H13.6674V38.2133H77.6175V-0.0374451Z" fill="url(#paint0_linear_285_263)"/>
</g>
<defs>
<linearGradient id="paint0_linear_285_263" x1="77.8735" y1="19.0952" x2="15.0784" y2="19.0952" gradientUnits="userSpaceOnUse">
<stop stop-color="#D3B274"/>
<stop offset="0.46" stop-color="#D3B274"/>
<stop offset="0.56" stop-color="#F3DEB5"/>
<stop offset="1" stop-color="#F3DEB5"/>
</linearGradient>
</defs>
</svg>
