<svg width="240" height="37" viewBox="0 0 240 37" fill="none" xmlns="http://www.w3.org/2000/svg">
<path d="M195.952 14.2269L195.551 15.5715C195.373 16.1601 194.835 16.566 194.221 16.566H188.965V35.8679C188.965 36.2738 188.65 36.6036 188.249 36.6239H184.799C184.362 36.6493 183.997 36.2992 183.997 35.8679V16.5609H177.507C177.162 16.5609 176.924 16.226 177.03 15.9013L177.482 14.5313C177.67 13.963 178.203 13.5723 178.801 13.5723H195.475C195.81 13.5774 196.048 13.9021 195.952 14.2269ZM157.632 15.5715L158.033 14.2269C158.129 13.9021 157.886 13.5774 157.551 13.5774H146.774H145.038C144.622 13.5774 144.287 13.9224 144.287 14.3436V35.8425C144.287 36.289 144.653 36.6392 145.089 36.6189H148.539C148.94 36.5986 149.26 36.2586 149.26 35.8425V16.5609H156.298C156.917 16.5609 157.454 16.1601 157.632 15.5715ZM93.6477 25.1768C93.6477 31.6361 88.741 36.8675 81.622 36.8675C74.2646 36.8675 69.5964 31.631 69.5964 25.1768C69.5964 18.7174 74.5031 13.486 81.622 13.486C88.9795 13.481 93.6477 18.7174 93.6477 25.1768ZM88.1524 25.1768C88.1524 20.2295 85.6153 16.221 81.622 16.221C77.2786 16.221 75.0917 20.2295 75.0917 25.1768C75.0917 30.124 77.6287 34.1326 81.622 34.1326C86.2039 34.1275 88.1524 30.1189 88.1524 25.1768ZM140.492 25.1768C140.492 31.6361 135.585 36.8675 128.466 36.8675C121.109 36.8675 116.441 31.631 116.441 25.1768C116.441 18.7174 121.347 13.486 128.466 13.486C135.824 13.481 140.492 18.7174 140.492 25.1768ZM134.997 25.1768C134.997 20.2295 132.459 16.221 128.466 16.221C124.123 16.221 121.936 20.2295 121.936 25.1768C121.936 30.124 124.473 34.1326 128.466 34.1326C133.048 34.1275 134.997 30.1189 134.997 25.1768ZM220.257 25.1768C220.257 31.6361 215.35 36.8675 208.231 36.8675C200.879 36.8675 196.205 31.631 196.205 25.1768C196.205 18.7174 201.112 13.486 208.231 13.486C215.583 13.481 220.257 18.7174 220.257 25.1768ZM214.761 25.1768C214.761 20.2295 212.224 16.221 208.231 16.221C203.893 16.221 201.701 20.2295 201.701 25.1768C201.701 30.124 204.238 34.1326 208.231 34.1326C212.808 34.1275 214.761 30.1189 214.761 25.1768ZM178.233 35.7613C178.421 36.2129 178.187 36.5884 177.781 36.6087L173.55 36.6189C173.113 36.6442 172.895 36.3093 172.748 35.8628L170.657 30.1189H162.524L160.555 35.8527C160.408 36.2992 160.189 36.6341 159.753 36.6087H156.851C156.445 36.5884 156.211 36.2129 156.399 35.7613L164.548 15.0387C164.573 14.3436 164.827 13.892 165.406 13.8209C166.177 13.7296 168.425 13.5013 168.425 13.5013C168.942 13.4556 169.394 13.7194 169.551 14.1355L178.233 35.7613ZM169.602 27.2115L166.623 19.027L166.613 19.0117H166.349L163.533 27.2166H169.602V27.2115ZM45.7278 13.5774H42.2622C41.8461 13.5774 41.5112 13.9224 41.5112 14.3436V35.8425C41.5112 36.289 41.8766 36.6392 42.3129 36.6189H45.7633C46.1642 36.5986 46.4788 36.2586 46.4788 35.8425V14.3486C46.4788 13.9224 46.1439 13.5774 45.7278 13.5774ZM240 29.6876C240 35.2489 234.764 36.8675 230.831 36.8675C226.899 36.8675 225.513 36.5225 224.6 36.4413C224.169 36.4007 223.798 36.1165 223.798 35.6852V14.8307C223.798 14.4146 224.133 14.0797 224.549 14.0797C224.549 14.0797 227.837 13.481 230.623 13.481C233.17 13.481 238.615 14.1406 238.615 19.0675C238.615 21.2545 237.199 22.7919 235.52 23.8524V24.2584C237.818 25.2021 240 26.973 240 29.6876ZM228.766 23.416H230.009C231.775 23.416 233.845 22.2287 233.845 19.5394C233.845 17.2662 232.404 16.084 230.248 16.084C229.847 16.084 229.314 16.1449 228.761 16.226V23.416H228.766ZM234.627 29.9413C234.627 27.455 232.805 26.0698 230.177 26.0698H228.766V34.1021C229.228 34.1833 229.791 34.2543 230.385 34.2543C232.967 34.2543 234.627 32.585 234.627 29.9413ZM67.2319 21.2951C67.2319 25.4 63.7866 28.7286 58.9256 28.7286C58.1188 28.7286 57.3221 28.6525 56.6219 28.5561V35.873C56.6219 36.2891 56.287 36.6239 55.871 36.6239H52.4053C51.9893 36.6239 51.6544 36.2891 51.6544 35.873V14.9322C51.6544 14.4958 52.0349 14.2928 52.451 14.1761C53.6333 13.8412 55.7948 13.481 58.1188 13.481C62.7667 13.481 67.2319 15.7339 67.2319 21.2951ZM62.1222 21.0414C62.1222 18.6362 60.6457 16.6371 58.0579 16.6371C57.52 16.6371 57.0279 16.7081 56.6168 16.7943V25.9531C57.1141 26.0191 57.7027 26.0749 58.2964 26.0749C61.1632 26.0749 62.1222 23.2892 62.1222 21.0414ZM38.8676 28.7895C38.8676 34.3507 34.8794 36.8675 29.7545 36.8675C27.4306 36.8675 25.269 36.5123 24.0868 36.1774C23.6656 36.0556 23.2851 35.8527 23.2851 35.4214V14.3283C23.2851 13.9123 23.6199 13.5774 24.036 13.5774H27.5016C27.9177 13.5774 28.2526 13.9123 28.2526 14.3283V21.5285C28.9528 21.427 29.7545 21.356 30.5563 21.356C36.1378 21.356 38.8676 24.6846 38.8676 28.7895ZM33.758 29.0432C33.758 26.7954 33.0375 24.0097 29.9321 24.0097C29.3385 24.0097 28.7499 24.0655 28.2526 24.1315V33.5592C28.6585 33.6454 29.1507 33.7165 29.6886 33.7165C32.2814 33.7114 33.758 31.4484 33.758 29.0432ZM113.32 29.0585C113.32 34.6197 109.154 36.8675 104.029 36.8675C101.705 36.8675 99.2748 36.5123 98.0976 36.1774C97.6765 36.0556 97.2959 35.8527 97.2959 35.4214V14.3283C97.2959 13.9123 97.6308 13.5774 98.0469 13.5774H99.4423H111.021C111.356 13.5774 111.6 13.9021 111.503 14.2269L111.103 15.5715C110.925 16.1601 110.382 16.566 109.768 16.566H102.258V21.8279C103.05 21.7162 103.953 21.63 104.831 21.63C110.412 21.6249 113.32 24.9535 113.32 29.0585ZM108.215 29.2208C108.215 26.973 107.551 24.2736 104.212 24.2736C103.552 24.2736 102.852 24.3395 102.263 24.4156V33.5186C102.756 33.6251 103.354 33.7114 103.968 33.7114C106.795 33.7114 108.215 31.626 108.215 29.2208ZM13.0455 16.566C15.0143 16.566 16.5416 17.1851 17.5107 17.5656C17.9014 17.7178 18.348 17.5555 18.5357 17.1851L19.1649 15.9419C19.3628 15.5563 19.1953 15.0894 18.7996 14.8966C16.9526 13.9985 15.0599 13.481 12.599 13.481C4.98277 13.481 0 18.7174 0 25.1717C0 32.3262 4.96755 36.8624 12.599 36.8624C15.9428 36.8624 17.8 35.9389 18.8199 35.3859C19.1953 35.1829 19.3425 34.7313 19.1547 34.3558L18.4647 32.9858C18.2718 32.6053 17.8 32.4429 17.4042 32.6154C16.5162 33.0112 15.1868 33.6049 12.9542 33.6049C8.20483 33.6049 5.25677 30.1139 5.25677 25.1717C5.25677 20.2295 7.92575 16.566 13.0455 16.566Z" fill="#FEFEFE"/>
<mask id="mask0_285_36" style="mask-type:luminance" maskUnits="userSpaceOnUse" x="73" y="0" width="18" height="11">
<path d="M88.3555 3.7367C88.254 3.98534 88.2032 4.24919 88.1779 4.5029C87.7009 3.82297 86.7064 3.67582 86.7064 3.67582C86.7064 3.67582 86.4476 4.67541 86.9144 5.38579C87.1123 5.68009 87.4015 5.87798 87.6755 6.0099C87.4269 6.22809 85.5393 7.75032 82.3731 6.32957V4.99508C82.6775 4.97479 83.0327 4.90375 83.327 4.69571C84.0272 4.21367 84.1541 3.1887 84.1541 3.1887C84.1541 3.1887 83.1799 2.95529 82.4796 3.41196C82.5558 3.16333 82.6014 2.90455 82.6014 2.63562C82.6014 1.41276 81.6171 0.514648 81.6171 0.514648C81.6171 0.514648 80.6377 1.41276 80.6377 2.63562C80.6377 2.90455 80.6885 3.16841 80.7595 3.41196C80.0644 2.95529 79.0851 3.1887 79.0851 3.1887C79.0851 3.1887 79.2119 4.21367 79.9122 4.69571C80.2064 4.90375 80.5616 4.97479 80.8661 4.99508V6.32957C77.6948 7.75032 75.8123 6.22809 75.5636 6.0099C75.8376 5.87798 76.1269 5.68009 76.3248 5.38579C76.7916 4.67541 76.5328 3.67582 76.5328 3.67582C76.5328 3.67582 75.5383 3.82297 75.0613 4.5029C75.041 4.24412 74.9852 3.98534 74.8888 3.7367C74.4372 2.60011 73.189 2.12821 73.189 2.12821L74.833 6.23824L76.1878 10.5918C78.943 9.75459 81.6171 9.75459 81.6171 9.75459C81.6171 9.75459 84.2911 9.75459 87.0463 10.5918L88.4011 6.23824L90.0451 2.12821C90.0502 2.12821 88.8071 2.60011 88.3555 3.7367Z" fill="white"/>
</mask>
<g mask="url(#mask0_285_36)">
<path d="M90.0551 0.504883H73.199V10.5871H90.0551V0.504883Z" fill="url(#paint0_linear_285_36)"/>
</g>
<defs>
<linearGradient id="paint0_linear_285_36" x1="90.1226" y1="5.54793" x2="73.5709" y2="5.54793" gradientUnits="userSpaceOnUse">
<stop stop-color="#D3B274"/>
<stop offset="0.46" stop-color="#D3B274"/>
<stop offset="0.56" stop-color="#F3DEB5"/>
<stop offset="1" stop-color="#F3DEB5"/>
</linearGradient>
</defs>
</svg>
