<svg width="60" height="60" viewBox="0 0 60 60" fill="none" xmlns="http://www.w3.org/2000/svg">
<path fill-rule="evenodd" clip-rule="evenodd" d="M2 30C2 45.464 14.536 58 30 58C45.464 58 58 45.464 58 30C58 14.536 45.464 2 30 2C14.536 2 2 14.536 2 30ZM30 0C13.4315 0 0 13.4315 0 30C0 46.5685 13.4315 60 30 60C46.5685 60 60 46.5685 60 30C60 13.4315 46.5685 0 30 0Z" fill="#FFFDF8"/>
<path fill-rule="evenodd" clip-rule="evenodd" d="M24 30.0001C24 29.4478 24.4477 29.0001 25 29.0001L33.5858 29.0001L28.9289 24.3432C28.5384 23.9527 28.5384 23.3195 28.9289 22.929C29.3195 22.5385 29.9526 22.5385 30.3431 22.929L36.7071 29.2929C37.0976 29.6835 37.0976 30.3166 36.7071 30.7072L30.3431 37.0711C29.9526 37.4616 29.3195 37.4616 28.9289 37.0711C28.5384 36.6806 28.5384 36.0474 28.9289 35.6569L33.5858 31.0001L25 31.0001C24.4477 31.0001 24 30.5523 24 30.0001Z" fill="#FFFDF8"/>
</svg>
