<svg width="41" height="40" viewBox="0 0 41 40" fill="none" xmlns="http://www.w3.org/2000/svg">
<rect x="0.694336" width="39.6108" height="39.6108" rx="2" fill="#2C2927"/>
<path d="M30.9433 15.2343C30.7446 14.2872 30.0159 13.6106 29.1548 13.34C27.6313 12.9341 21.2724 12.9341 21.2724 12.9341C21.2724 12.9341 14.9797 12.9341 13.39 13.34C12.5289 13.6106 11.8665 14.2872 11.6015 15.2343C11.2041 16.7904 11.2041 20.1731 11.2041 20.1731C11.2041 20.1731 11.2041 23.5559 11.6015 25.1796C11.8665 26.0591 12.5289 26.8033 13.39 27.0062C14.9797 27.4122 21.2724 27.4122 21.2724 27.4122C21.2724 27.4122 27.5651 27.4122 29.1548 27.0062C30.0159 26.7356 30.6783 26.0591 30.9433 25.1796C31.3407 23.5559 31.3407 20.1731 31.3407 20.1731C31.3407 20.1731 31.407 16.7904 30.9433 15.2343Z" fill="white"/>
<path d="M19.2197 23.285V17.1284L24.5188 20.1729L19.2197 23.285Z" fill="#2C2927"/>
</svg>
