<svg width="40" height="40" viewBox="0 0 40 40" fill="none" xmlns="http://www.w3.org/2000/svg">
<rect width="39.6108" height="39.6108" rx="2" fill="#2C2927"/>
<path fill-rule="evenodd" clip-rule="evenodd" d="M19.6972 26.4133H21.0039C21.0039 26.4133 21.4216 26.3491 21.6251 26.1349C21.8286 25.9314 21.8286 25.5886 21.8286 25.5886C21.8286 25.5886 21.8286 23.7999 22.6533 23.5215C23.478 23.243 24.5063 25.2459 25.6095 25.9956C26.4342 26.5419 27.0554 26.4776 27.0554 26.4776L30.0115 26.4133C30.0115 26.4133 31.5967 26.3491 30.8362 25.1066C30.772 24.9674 30.4185 24.2069 28.6298 22.5575C26.7769 20.8331 27.0447 21.1116 29.2511 18.1554C30.622 16.3025 31.179 15.1993 30.9755 14.7173C30.8362 14.2354 29.808 14.3746 29.808 14.3746H26.4342C26.4342 14.3746 26.1557 14.3103 26.0165 14.4389C25.813 14.5781 25.738 14.7816 25.738 14.7816C25.738 14.7816 25.1917 16.1526 24.4956 17.395C22.9854 19.9441 22.4284 20.0834 22.1606 19.8691C21.6144 19.5264 21.7429 18.4232 21.7429 17.5985C21.7429 15.1243 22.0857 14.1604 21.0574 13.8819C20.7147 13.8177 20.4362 13.7427 19.4723 13.7427C18.3048 13.7427 17.2659 13.7427 16.7197 14.0212C16.3019 14.2247 16.0342 14.6424 16.2377 14.6424C16.4412 14.7066 16.9232 14.7816 17.2016 15.1243C17.5444 15.6063 17.5444 16.6345 17.5444 16.6345C17.5444 16.6345 17.7479 19.5264 17.0624 19.8691C16.5804 20.1476 15.9592 19.5907 14.6525 17.32C13.967 16.1526 13.485 14.8459 13.485 14.8459C13.485 14.8459 13.3458 14.5674 13.2066 14.5031C13.0138 14.3746 12.746 14.2996 12.746 14.2996H9.57568C9.57568 14.2996 9.0937 14.2996 8.95446 14.5031C8.81522 14.7066 8.95446 15.0494 8.95446 15.0494C8.95446 15.0494 11.4286 20.8974 14.2562 23.7892C16.8053 26.5526 19.6972 26.4133 19.6972 26.4133Z" fill="white"/>
</svg>
