<svg width="40" height="40" viewBox="0 0 40 40" fill="none" xmlns="http://www.w3.org/2000/svg">
<rect x="0.389648" width="39.6108" height="39.6108" rx="2" fill="#2C2927"/>
<path d="M28.2546 13.0534L11.5974 18.8904C10.6914 19.1376 10.7146 19.9653 11.3884 20.1696L15.5585 21.3735L17.1615 25.9098C17.3589 26.4043 17.5099 26.5978 17.8468 26.5978C18.1953 26.5978 18.323 26.4795 18.6947 26.1893C19.1129 25.8238 19.7634 25.2433 20.7856 24.3189L25.1299 27.2857C25.9314 27.6942 26.5006 27.4792 26.7097 26.5978L29.4278 14.1283C29.7066 13.0534 29.0213 12.7309 28.2546 13.0534ZM16.2206 21.094L25.7107 15.5795C26.1754 15.2893 26.3264 15.6118 26.1173 15.8375L18.2417 22.3947L17.8352 25.6733L16.2206 21.094Z" fill="white"/>
</svg>
